<svg width="28" height="29" viewBox="0 0 28 29" fill="none" xmlns="http://www.w3.org/2000/svg">
<path d="M15.4 10.3H12.6V7.5H15.4M15.4 21.5H12.6V13.1H15.4M14 0.5C12.1615 0.5 10.341 0.862121 8.64243 1.56569C6.94387 2.26925 5.40053 3.30048 4.1005 4.6005C1.475 7.22601 0 10.787 0 14.5C0 18.213 1.475 21.774 4.1005 24.3995C5.40053 25.6995 6.94387 26.7307 8.64243 27.4343C10.341 28.1379 12.1615 28.5 14 28.5C17.713 28.5 21.274 27.025 23.8995 24.3995C26.525 21.774 28 18.213 28 14.5C28 12.6615 27.6379 10.841 26.9343 9.14243C26.2307 7.44387 25.1995 5.90053 23.8995 4.6005C22.5995 3.30048 21.0561 2.26925 19.3576 1.56569C17.659 0.862121 15.8385 0.5 14 0.5Z" fill="#B0B0B0"/>
</svg>
