<svg width="48" height="46" viewBox="0 0 48 46" fill="none" xmlns="http://www.w3.org/2000/svg">
<g clip-path="url(#clip0_372_248)">
<path d="M8.41279 0.00463867H38.7669C43.3689 0.00463867 47.0898 3.73898 47.0898 8.35766V37.6422C47.0898 42.2609 43.3689 45.9952 38.7669 45.9952H8.41279C3.81074 45.9952 0.0898438 42.2609 0.0898438 37.6422V8.35766C0.0898438 3.73898 3.81074 0.00463867 8.41279 0.00463867Z" fill="#00005B"/>
<path d="M18.9682 27.5203H11.6832L10.1948 32.1586C10.1557 32.3354 9.99892 32.4533 9.82276 32.4337H6.14116C5.92571 32.4337 5.86706 32.3158 5.92571 32.08L12.2316 13.9392C12.2903 13.7426 12.3491 13.5658 12.4275 13.33C12.5059 12.9173 12.545 12.4849 12.545 12.0524C12.5254 11.9541 12.6037 11.8558 12.7016 11.8362H17.7737C17.9107 11.8362 18.0087 11.895 18.0282 11.9934L25.1762 32.0405C25.235 32.2567 25.1761 32.355 24.9803 32.355H20.8873C20.7503 32.3747 20.6132 32.2764 20.5739 32.1388L18.968 27.4218V27.5201L18.9682 27.5203ZM12.8191 23.6092H17.7932C17.6757 23.1966 17.5191 22.705 17.3428 22.1941C17.1664 21.6635 16.9903 21.0935 16.8141 20.5039C16.6182 19.8947 16.4421 19.305 16.2462 18.6958C16.0503 18.0866 15.8741 17.5166 15.7175 16.9466C15.5609 16.3962 15.4238 15.8852 15.2866 15.4135H15.2475C15.0712 16.2586 14.8559 17.1037 14.5816 17.949C14.2879 18.8924 13.9941 19.875 13.6807 20.8579C13.4262 21.8601 13.1128 22.7839 12.8191 23.6094V23.6092ZM36.7107 25.7515H30.5028C30.5811 26.3607 30.7769 26.97 31.1098 27.5007C31.4623 28.0313 31.9519 28.4441 32.5394 28.68C33.3228 29.0141 34.1844 29.1909 35.046 29.1713C35.7314 29.1517 36.4169 29.0926 37.0826 28.955C37.6896 28.8764 38.2771 28.7192 38.8255 28.503C38.9235 28.4243 38.9821 28.4637 38.9821 28.6601V31.6673C38.9821 31.746 38.9626 31.8245 38.943 31.9032C38.9039 31.9622 38.8646 32.0015 38.806 32.0407C38.1794 32.3158 37.533 32.5124 36.8476 32.6303C35.9271 32.8071 35.0067 32.8858 34.0667 32.8662C32.5783 32.8662 31.3251 32.6303 30.3067 32.1783C29.3471 31.7654 28.5051 31.1169 27.8392 30.3111C27.2126 29.5447 26.7621 28.6798 26.488 27.7364C26.2139 26.8126 26.0767 25.8496 26.0767 24.8669C26.0767 23.8056 26.2333 22.7639 26.5662 21.7418C26.8796 20.7592 27.3692 19.855 28.0349 19.0492C28.6812 18.263 29.484 17.6341 30.4044 17.182C31.3249 16.73 32.4215 16.5728 33.6749 16.5728C34.7128 16.5532 35.7508 16.7498 36.7103 17.182C37.5133 17.5358 38.2183 18.0666 38.7667 18.7543C39.2758 19.4226 39.6871 20.1694 39.9417 20.9949C40.1962 21.7811 40.3137 22.5867 40.3137 23.3926C40.3137 23.8643 40.2942 24.2771 40.2746 24.6505C40.2355 25.0239 40.2158 25.2992 40.1962 25.476C40.1767 25.6135 40.0592 25.7315 39.9221 25.7315C39.8046 25.7315 39.5892 25.7511 39.2758 25.7707C38.9624 25.81 38.5903 25.8298 38.1399 25.8298C37.6894 25.8298 37.2194 25.7511 36.7103 25.7511L36.7107 25.7515ZM30.5028 22.882H34.6348C35.1439 22.882 35.5161 22.882 35.751 22.8624C35.9076 22.8428 36.0644 22.8034 36.2014 22.7052V22.5086C36.2014 22.2532 36.1623 22.0173 36.0839 21.7815C35.7314 20.6809 34.6935 19.9339 33.538 19.9733C32.461 19.9143 31.4426 20.4843 30.9335 21.4671C30.6985 21.9192 30.5614 22.3909 30.5026 22.8822L30.5028 22.882Z" fill="#9999FF"/>
</g>
<defs>
<clipPath id="clip0_372_248">
<rect width="47" height="46" fill="white" transform="translate(0.0898438)"/>
</clipPath>
</defs>
</svg>
