<svg width="45" height="45" viewBox="0 0 45 45" fill="none" xmlns="http://www.w3.org/2000/svg">
<path d="M14.0662 0H18.9V2.02125H16.0875V4.0425H18.9V6.06375H14.0662V0ZM19.8656 0H24.7012V1.75875H21.8887V2.10938H24.7012V6.15188H19.8656V4.30688H22.6781V3.95438H19.8656V0ZM25.6687 0H30.5006V1.75875H27.6881V2.10938H30.5006V6.15188H25.6687V4.30688H28.4812V3.95438H25.6687V0Z" fill="#898989"/>
<path fill-rule="evenodd" clip-rule="evenodd" d="M22.4831 45L9.46312 41.385L5.625 8.84436H39.375L35.5388 41.3812L22.4831 45ZM13.2131 23.5744L13.5712 27.5644H27.4031L26.94 32.7394L22.4888 33.9431H22.485L18.0412 32.7431L17.7563 29.5612H13.7494L14.3081 35.8275L22.4831 38.0962L30.6712 35.8275L31.6687 24.645L31.7662 23.5744L32.4862 15.495H12.495L12.8587 19.4869H28.1138L27.75 23.5744H13.2131Z" fill="#898989"/>
</svg>
