<svg width="41" height="41" viewBox="0 0 41 41" fill="none" xmlns="http://www.w3.org/2000/svg">
<path d="M25.5519 2.00879C29.1678 2.00879 31.0159 2.00879 32.9443 2.61143C35.0737 3.37477 36.7611 5.06217 37.5244 7.1915C38.1672 9.16012 38.1672 10.968 38.1672 14.6241V25.5519C38.1672 29.1678 38.1672 31.0159 37.5646 32.9443C36.8012 35.0737 35.1138 36.7611 32.9845 37.5244C31.0159 38.1672 29.208 38.1672 25.5519 38.1672H14.6241C11.0082 38.1672 9.16012 38.1672 7.23167 37.5646C5.10234 36.7611 3.41495 35.0737 2.61143 32.9443C2.00879 31.0159 2.00879 29.208 2.00879 25.5519V14.6241C2.00879 11.0082 2.00879 9.16012 2.61143 7.23167C3.41495 5.10234 5.10234 3.41495 7.23167 2.61143C9.16012 2.00879 10.968 2.00879 14.6241 2.00879H25.5519Z" fill="white"/>
<path d="M14.3829 15.2668C14.7445 15.2668 15.0659 15.307 15.3873 15.3873C15.307 15.0659 15.2668 14.7043 15.2668 14.3829V9.24039C15.2668 8.99934 15.307 8.79846 15.307 8.59758C13.4187 7.19142 10.7269 7.35212 9.03951 9.03951C7.35212 10.7269 7.19142 13.4187 8.59758 15.307C8.79846 15.2668 9.03951 15.2668 9.24039 15.2668H14.3829Z" fill="#FF7E7B"/>
<path d="M19.7665 19.1638C19.5254 19.1638 19.3246 19.1237 19.0835 19.0835C19.1237 19.2844 19.1638 19.5254 19.1638 19.7665C19.2844 19.6861 19.3647 19.6058 19.4853 19.4853C19.5656 19.3647 19.646 19.2844 19.7665 19.1638Z" fill="#FF6F3F"/>
<path d="M19.4854 12.6555C19.7265 12.8966 19.9675 13.1778 20.1283 13.459C20.3291 13.1778 20.53 12.8966 20.7711 12.6555L24.3869 9.03968C24.5476 8.87897 24.6681 8.75845 24.8289 8.63792C24.5878 6.26753 22.5388 4.41943 20.0881 4.41943C17.6373 4.41943 15.6285 6.22736 15.3071 8.59774C15.508 8.71827 15.6687 8.87897 15.8294 9.03968L19.4854 12.6555Z" fill="#FFAC00"/>
<path d="M20.4898 19.1639C20.3692 19.0032 20.2085 18.8425 20.1282 18.6416C20.0077 18.8023 19.8871 19.0032 19.7666 19.1639H20.088C20.2085 19.2041 20.3692 19.1639 20.4898 19.1639Z" fill="#FFC300"/>
<path d="M15.2671 14.383C15.2671 14.7446 15.3073 15.066 15.3876 15.3874C17.2357 15.7892 18.6821 17.2355 19.0838 19.0836C19.2847 19.1238 19.5258 19.164 19.7668 19.164C19.8873 19.0033 20.048 18.8425 20.1284 18.6417C19.124 17.0748 19.124 15.0258 20.1284 13.459C19.9275 13.1777 19.7266 12.8965 19.4856 12.6554L15.8697 9.03959C15.709 8.87889 15.5081 8.71818 15.3474 8.59766C15.3073 8.79854 15.2671 8.99942 15.2671 9.24047V14.383Z" fill="#FF3400"/>
<path d="M24.9091 14.3832C24.9091 14.7448 24.8689 15.0662 24.7886 15.3876C25.11 15.3072 25.4716 15.2671 25.793 15.2671H30.9355C31.1766 15.2671 31.4176 15.3072 31.6587 15.3474C33.0648 13.4591 32.9443 10.7674 31.2167 9.03978C29.4892 7.31221 26.7572 7.19168 24.8689 8.63802C24.9091 8.8389 24.9091 9.03978 24.9091 9.24066V14.3832Z" fill="#F0EA0D"/>
<path d="M21.012 19.6861C21.012 19.4853 21.0522 19.2844 21.0924 19.0835C20.8915 19.1237 20.6906 19.1638 20.4897 19.1638C20.5701 19.2844 20.6906 19.3647 20.771 19.4853C20.8513 19.5656 20.9317 19.6058 21.012 19.6861Z" fill="#DAE411"/>
<path d="M20.7712 12.6553C20.5302 12.8964 20.2891 13.1776 20.1284 13.4588C21.1328 15.0257 21.1328 17.0747 20.1284 18.6415C20.2489 18.8022 20.3695 19.0031 20.49 19.1638C20.6909 19.1638 20.8918 19.1236 21.0926 19.0835C21.4944 17.2354 22.9407 15.789 24.7888 15.3873C24.8692 15.0659 24.9094 14.7043 24.9094 14.3829V9.24034C24.9094 9.03946 24.9094 8.83858 24.8692 8.6377C24.7085 8.75822 24.5478 8.87875 24.4273 9.03946L20.7712 12.6553Z" fill="#EAA200"/>
<path d="M20.1283 13.459C19.1239 15.0259 19.1239 17.0748 20.1283 18.6417C21.1327 17.0748 21.1327 15.066 20.1283 13.459Z" fill="#E63300"/>
<path d="M20.9717 20.0878C20.9717 20.2485 20.9717 20.4092 21.0119 20.5699C21.2127 20.4092 21.4136 20.2485 21.6145 20.128C21.4136 20.0074 21.2127 19.8467 21.0119 19.686C21.0119 19.8066 20.9717 19.9673 20.9717 20.0878Z" fill="#83D567"/>
<path d="M35.7566 20.0879C35.7566 17.6774 33.9889 15.6686 31.6587 15.3472C31.5381 15.548 31.3774 15.7088 31.2167 15.8695L27.6009 19.4853C27.3598 19.7264 27.0786 19.9674 26.7974 20.1281C27.0786 20.329 27.3598 20.5299 27.6009 20.7709L31.2167 24.3868C31.3774 24.5475 31.498 24.668 31.6185 24.8287C33.9487 24.5073 35.7566 22.5387 35.7566 20.0879Z" fill="#A2DD50"/>
<path d="M25.7932 15.2671C25.4316 15.2671 25.1102 15.3073 24.7888 15.3876C24.387 17.2357 22.9407 18.6821 21.0926 19.0838C21.0524 19.2847 21.0122 19.4856 21.0122 19.6865C21.2131 19.8472 21.414 20.0079 21.6148 20.1284C23.1817 19.124 25.2307 19.124 26.7976 20.1284C27.0788 19.9275 27.36 19.7266 27.6011 19.4856L31.2169 15.8697C31.3776 15.709 31.5383 15.5081 31.6589 15.3474C31.4178 15.3073 31.1767 15.2671 30.9357 15.2671H25.7932Z" fill="#8BC100"/>
<path d="M24.7885 15.3872C22.9404 15.789 21.494 17.2353 21.0923 19.0834C22.9404 18.6816 24.3867 17.2353 24.7885 15.3872Z" fill="#8D8800"/>
<path d="M25.793 24.9091C25.4314 24.9091 25.11 24.8689 24.7886 24.7886C24.8689 25.11 24.9091 25.4716 24.9091 25.793V30.9355C24.9091 31.1766 24.8689 31.3774 24.8689 31.6185C26.7572 33.105 29.4892 32.9845 31.2569 31.2167C32.9845 29.4892 33.1452 26.7572 31.6587 24.8287C31.3774 24.8689 31.1766 24.9091 30.9355 24.9091H25.793Z" fill="#44C899"/>
<path d="M20.5703 21.0122C20.731 21.0122 20.9319 21.0524 21.0926 21.0926C21.0524 20.9319 21.0122 20.731 21.0122 20.5703C20.9319 20.6507 20.8515 20.6908 20.7712 20.7712C20.6908 20.8515 20.6507 20.9319 20.5703 21.0122Z" fill="#4EBFBD"/>
<path d="M27.6011 20.7712C27.36 20.5302 27.0788 20.2891 26.7976 20.1284C25.2307 21.1328 23.1817 21.1328 21.6148 20.1284C21.414 20.2489 21.2131 20.4097 21.0122 20.5704C21.0122 20.7311 21.0524 20.9319 21.0926 21.0926C22.9407 21.4944 24.387 22.9407 24.7888 24.7888C25.1102 24.8692 25.4717 24.9094 25.7932 24.9094H30.9357C31.1767 24.9094 31.3776 24.8692 31.6187 24.8692C31.4982 24.7085 31.3776 24.5478 31.2169 24.4273L27.6011 20.7712Z" fill="#00A33F"/>
<path d="M21.6147 20.1283C23.1816 21.1327 25.2306 21.1327 26.7975 20.1283C25.1904 19.1239 23.1816 19.1239 21.6147 20.1283Z" fill="#008D08"/>
<path d="M19.686 21.0119C19.8467 21.2127 20.0074 21.4136 20.128 21.6145C20.2485 21.4136 20.4092 21.2127 20.5699 21.0119C20.4092 21.0119 20.2485 20.9717 20.0878 20.9717C19.9673 20.9717 19.8066 21.0119 19.686 21.0119Z" fill="#859ED5"/>
<path d="M20.7709 27.6009C20.5299 27.3598 20.2888 27.0786 20.1281 26.7974C19.9272 27.0786 19.7264 27.3598 19.4853 27.6009L15.8695 31.2167C15.7088 31.3774 15.5079 31.5381 15.3472 31.6587C15.6686 33.9889 17.6774 35.7566 20.0879 35.7566C22.5387 35.7566 24.5073 33.9487 24.8689 31.6185C24.7082 31.498 24.5475 31.3774 24.427 31.2167L20.7709 27.6009Z" fill="#6EACDF"/>
<path d="M24.9094 25.7932C24.9094 25.4316 24.8692 25.1102 24.7888 24.7888C22.9407 24.387 21.4944 22.9407 21.0926 21.0926C20.9319 21.0524 20.7311 21.0122 20.5704 21.0122C20.4097 21.2131 20.2489 21.414 20.1284 21.6148C21.1328 23.1817 21.1328 25.2307 20.1284 26.7976C20.3293 27.0788 20.5302 27.36 20.7712 27.6011L24.3871 31.2169C24.5478 31.3776 24.6683 31.4982 24.829 31.6187C24.8692 31.3776 24.8692 31.1767 24.8692 30.9357V25.7932H24.9094Z" fill="#1D7B97"/>
<path d="M24.7885 24.7885C24.3867 22.9404 22.9404 21.494 21.0923 21.0923C21.494 22.9404 22.9404 24.3867 24.7885 24.7885Z" fill="#00683A"/>
<path d="M19.1638 20.4897C19.1638 20.6906 19.1237 20.8915 19.0835 21.0924C19.2844 21.0522 19.4853 21.012 19.6861 21.012C19.6058 20.9317 19.5656 20.8513 19.4853 20.771C19.3647 20.6906 19.2844 20.6103 19.1638 20.4897Z" fill="#BE85C1"/>
<path d="M15.2667 25.793C15.2667 25.4314 15.3069 25.11 15.3872 24.7886C15.0658 24.8689 14.7042 24.9091 14.3828 24.9091H9.24029C9.03941 24.9091 8.83853 24.9091 8.63765 24.8689C7.15113 26.7572 7.31184 29.4892 9.03941 31.2167C10.767 32.9443 13.4588 33.0648 15.347 31.6587C15.3069 31.4176 15.2667 31.1766 15.2667 30.9355V25.793Z" fill="#AB86C4"/>
<path d="M19.4856 27.6011C19.7266 27.36 19.9677 27.0788 20.1284 26.7976C19.124 25.2307 19.124 23.1817 20.1284 21.6148C20.0079 21.414 19.8472 21.2131 19.6865 21.0122C19.4856 21.0122 19.2847 21.0524 19.0838 21.0926C18.6821 22.9407 17.2357 24.387 15.3876 24.7888C15.3073 25.1102 15.2671 25.4717 15.2671 25.7932V30.9357C15.2671 31.1767 15.3073 31.4178 15.3474 31.6589C15.5483 31.5383 15.709 31.3776 15.8697 31.2169L19.4856 27.6011Z" fill="#5D53A6"/>
<path d="M20.1283 26.7975C21.1327 25.2306 21.1327 23.1816 20.1283 21.6147C19.1239 23.1816 19.1239 25.1904 20.1283 26.7975Z" fill="#243F76"/>
<path d="M19.1639 19.7666C19.0032 19.8871 18.8425 20.0478 18.6416 20.1282C18.8023 20.2487 19.0032 20.3692 19.1639 20.4898C19.1639 20.3692 19.2041 20.2085 19.2041 20.088C19.2041 19.9675 19.1639 19.847 19.1639 19.7666Z" fill="#F1648A"/>
<path d="M12.6555 20.7709C12.8966 20.5299 13.1778 20.2888 13.459 20.1281C13.1778 19.9272 12.8966 19.7264 12.6555 19.4853L9.03968 15.8695C8.87897 15.7088 8.71827 15.5079 8.59774 15.3472C6.22736 15.6284 4.41943 17.6372 4.41943 20.0879C4.41943 22.5387 6.26753 24.5877 8.63792 24.8689C8.75845 24.7082 8.87897 24.5475 9.03968 24.427L12.6555 20.7709Z" fill="#E275A8"/>
<path d="M12.6554 19.4856C12.8965 19.7266 13.1777 19.9677 13.459 20.1284C15.0258 19.124 17.0748 19.124 18.6417 20.1284C18.8024 20.0079 19.0033 19.8873 19.164 19.7668C19.164 19.5258 19.1238 19.3249 19.0836 19.0838C17.2355 18.6821 15.7892 17.2357 15.3874 15.3876C15.066 15.3073 14.7044 15.2671 14.383 15.2671H9.24047C8.99942 15.2671 8.79854 15.3073 8.59766 15.3073C8.71818 15.5081 8.87889 15.6689 9.03959 15.8296L12.6554 19.4856Z" fill="#E40017"/>
<path d="M15.3872 15.3872C15.789 17.2353 17.2353 18.6816 19.0834 19.0834C18.6816 17.2353 17.2353 15.789 15.3872 15.3872Z" fill="#E60000"/>
<path d="M14.3829 24.9094C14.7445 24.9094 15.0659 24.8692 15.3873 24.7888C15.789 22.9407 17.2354 21.4944 19.0835 21.0926C19.1236 20.8918 19.1638 20.6909 19.1638 20.49C19.0031 20.3695 18.8424 20.2088 18.6415 20.1284C17.0747 21.1328 15.0257 21.1328 13.4588 20.1284C13.1776 20.3293 12.8964 20.5302 12.6553 20.7712L9.03946 24.3871C8.87875 24.5478 8.75822 24.6683 8.6377 24.829C8.83858 24.9094 9.03946 24.9094 9.24034 24.9094H14.3829Z" fill="#9F3174"/>
<path d="M13.459 20.1283C15.0259 21.1327 17.0748 21.1327 18.6417 20.1283C17.0748 19.1239 15.066 19.1239 13.459 20.1283Z" fill="#9F0017"/>
<path d="M15.3872 24.7885C17.2353 24.3867 18.6816 22.9404 19.0834 21.0923C17.2353 21.494 15.789 22.9404 15.3872 24.7885Z" fill="#561E5D"/>
</svg>
