<svg width="47" height="46" viewBox="0 0 47 46" fill="none" xmlns="http://www.w3.org/2000/svg">
<path d="M3.72829 28.0599C3.39155 28.1483 2.91035 28.4261 2.68322 28.6662L2.45969 28.8919L2.39752 28.0969H1.57347L1.55479 30.9781L1.54077 33.8649H2.47874L2.50533 31.9875C2.53624 29.869 2.57362 29.6678 2.97432 29.2584C3.26541 28.962 3.72182 28.797 4.12072 28.8423C4.4571 28.8793 4.69141 29.0306 4.86894 29.3328C4.98825 29.5355 4.99472 29.6804 5.01521 31.704L5.0339 33.8649H5.97186L5.99019 31.8614C6.00888 29.9391 6.01535 29.8503 6.14904 29.5977C6.63671 28.6971 7.92399 28.5591 8.34733 29.3591C8.47491 29.5977 8.48138 29.7303 8.50007 31.7349L8.52486 33.8649H9.40677L9.38664 31.5142L9.36796 29.169L9.19007 28.8358C8.79763 28.0912 7.71304 27.8015 6.8146 28.1925C6.66797 28.2565 6.3891 28.4639 6.19288 28.6457C5.86441 28.9559 5.83171 28.9749 5.76307 28.8613C5.59776 28.5774 5.32499 28.3251 5.05222 28.1929C4.72843 28.0473 4.04454 27.973 3.72829 28.0599Z" fill="#C60F0F"/>
<path d="M11.6237 28.0662C10.8572 28.2297 10.1158 28.7777 9.82436 29.4088C9.37406 30.3612 9.39275 31.7289 9.8682 32.654C10.3508 33.5998 11.599 34.1418 12.7328 33.9082C14.2802 33.5812 15.0015 32.503 14.8937 30.6821C14.875 30.3669 14.8175 29.9702 14.7614 29.7876C14.5465 29.1005 13.9252 28.4572 13.2269 28.1984C12.8154 28.0414 12.0424 27.9792 11.6237 28.0662ZM12.9232 28.9747C13.601 29.2891 13.9309 29.9389 13.9252 30.9656C13.9187 32.0064 13.6147 32.6543 12.9807 32.9767C12.5556 33.1959 11.8466 33.2024 11.4523 33.0018C11.181 32.8567 10.8572 32.5282 10.7045 32.2382C10.4191 31.6898 10.4069 30.4107 10.6797 29.8253C10.9837 29.1634 11.4854 28.8356 12.1876 28.8295C12.4931 28.8234 12.6832 28.8604 12.9232 28.9747ZM17.1951 28.0849C16.7445 28.2171 16.4721 28.3684 16.2119 28.6333C16.0732 28.772 15.9391 28.8856 15.9143 28.8856C15.8892 28.8856 15.8644 28.7034 15.8644 28.4759V28.0601L15.4705 28.078L15.0716 28.0971L15.0529 30.9778L15.04 33.8647H15.9905V32.0499C15.997 30.1337 16.0279 29.8189 16.2816 29.4404C16.4595 29.1626 16.9346 28.8978 17.3536 28.8421C17.9552 28.7594 18.5705 29.1069 18.7095 29.6101C18.7545 29.7689 18.7793 30.593 18.7793 31.8612V33.8647H19.7359L19.7172 31.6089L19.6985 29.3592L19.5332 29.0056C19.3431 28.6085 19.0585 28.3497 18.6082 28.1736C18.2154 28.022 17.5624 27.9785 17.1951 28.0849ZM21.8203 28.0597C20.864 28.2685 20.1862 28.9934 19.9199 30.0837C19.7999 30.5682 19.8186 31.4889 19.9508 31.9424C20.3389 33.2793 21.2004 33.9413 22.4485 33.8525C22.93 33.8148 23.3487 33.6512 23.6711 33.3673C23.8867 33.1779 23.9065 33.1715 23.9442 33.2915C24.0078 33.4989 23.9065 34.3118 23.785 34.5892C23.5453 35.1319 23.0698 35.3773 22.2706 35.3773C21.5554 35.3716 21.0724 35.1063 20.9589 34.6467C20.9276 34.527 20.864 34.4958 20.63 34.4634C20.4831 34.4474 20.3371 34.4243 20.1923 34.3944C20.0597 34.3693 20.0457 34.3883 20.0457 34.6345C20.0522 35.239 20.5086 35.7687 21.2439 36.021C21.5684 36.1349 21.802 36.1658 22.2957 36.1658C23.4375 36.1658 24.2227 35.7622 24.6029 34.9867C24.8879 34.4131 24.9332 33.745 24.9127 30.6821L24.894 28.0975H24.07L24.0513 28.4263C24.0391 28.6085 24.0139 28.7594 23.9956 28.7594C23.9751 28.7594 23.8615 28.6717 23.735 28.5646C23.2535 28.1427 22.4298 27.9275 21.8207 28.0601L21.8203 28.0597ZM23.0698 28.9804C23.2477 29.0753 23.4749 29.2453 23.5701 29.3714C24.2802 30.2972 24.1462 32.2069 23.3228 32.7988C22.5182 33.3799 21.3966 33.0637 20.9977 32.1508C20.7939 31.6837 20.744 30.6257 20.9028 30.0525C21.0225 29.591 21.3639 29.1504 21.752 28.9492C22.0931 28.7659 22.6634 28.7777 23.0698 28.9804ZM27.0488 28.091C26.5238 28.2423 26.3649 28.3185 26.016 28.5833C25.3379 29.0883 25.022 29.8623 25.0281 30.9962C25.0281 31.8224 25.1546 32.3208 25.4971 32.8505C25.9535 33.5499 26.7326 33.9413 27.6828 33.9477C28.7796 33.9535 29.6475 33.4672 30.0852 32.6044L30.3066 32.1634L30.5028 32.5666C31.2194 34.0735 33.463 34.4383 34.7373 33.2663C34.9396 33.0831 35.1614 32.8258 35.225 32.7057C35.2951 32.5796 35.3633 32.4782 35.382 32.4782C35.4025 32.4782 35.4711 32.6108 35.5348 32.7805C35.8528 33.5377 36.638 33.9535 37.7593 33.947C38.4123 33.947 38.8938 33.8277 39.3316 33.5499C39.5917 33.3864 40.0093 32.9188 40.0093 32.7866C40.0093 32.7618 40.0406 32.6608 40.0794 32.5674L40.1416 32.3895L40.3252 32.7057C41.1187 34.0922 43.3307 34.4005 44.5335 33.2976C44.8447 33.008 45.2688 32.2587 45.1678 32.1634C45.1362 32.1325 44.9213 32.0808 44.6862 32.0556L44.269 31.9999L44.1659 32.2134C43.8809 32.8053 43.4759 33.1028 42.8617 33.1528C41.8914 33.2415 41.1622 32.6418 40.9721 31.6154C40.9408 31.4328 40.9283 31.2679 40.9469 31.2488C40.9656 31.2305 41.9489 31.2179 43.1265 31.2179H45.2684V30.8783C45.2684 30.442 45.1861 30.0136 45.0104 29.5475C44.8059 29.0052 44.1863 28.4011 43.6225 28.1927C43.013 27.9652 42.1703 27.9792 41.5687 28.2236C40.561 28.6333 39.9515 29.6553 39.9454 30.9218V31.3566L39.6931 31.1353C39.42 30.9092 38.8755 30.6882 38.0137 30.4621C37.0492 30.2099 36.7264 30.0834 36.5554 29.8871C36.3717 29.6679 36.3592 29.5231 36.4918 29.2705C36.638 28.9804 37.0427 28.8234 37.6457 28.8234C38.3357 28.8234 38.6462 28.9804 38.869 29.4343C38.9948 29.6924 39.0523 29.7549 39.154 29.7362C39.2967 29.7114 39.44 29.6906 39.5838 29.674C39.9393 29.6302 39.9658 29.5353 39.7305 29.0369C39.4203 28.3745 38.7037 28.0349 37.6335 28.0414C37.1318 28.0471 36.923 28.0723 36.6258 28.1923C35.9789 28.4385 35.6113 28.8733 35.5161 29.5102L35.4711 29.8002L35.2749 29.4214C34.2866 27.53 31.3455 27.5692 30.4654 29.4839L30.3066 29.8311L30.0852 29.3905C29.8058 28.8356 29.3686 28.4445 28.7735 28.2171C28.247 28.0159 27.5117 27.9645 27.0488 28.091ZM28.4619 28.9873C29.1145 29.3082 29.4387 29.9644 29.4387 30.9656C29.4322 32.3521 28.7922 33.1718 27.714 33.1718C27.0549 33.1718 26.5037 32.8056 26.2061 32.1828C26.0487 31.8429 26.0347 31.7602 26.0347 30.966C26.0347 30.0388 26.1048 29.7754 26.4724 29.3452C26.9101 28.8299 27.8093 28.666 28.4619 28.9873ZM33.5064 28.9172C33.8119 29.043 34.223 29.4221 34.3693 29.7057C34.6485 30.2476 34.692 31.3818 34.4649 32.0438C34.3373 32.4161 33.9894 32.8258 33.6527 32.9896C33.0824 33.2796 32.2583 33.184 31.7897 32.774C31.0171 32.1002 30.9218 30.2102 31.6244 29.397C32.0621 28.8795 32.9045 28.6725 33.5064 28.9172ZM43.3167 28.9434C43.8187 29.1573 44.1921 29.6679 44.2111 30.1653L44.2234 30.4298H40.9926L41.0113 30.2411C41.0544 29.7114 41.422 29.2147 41.9428 28.956C42.2842 28.7846 42.9368 28.7778 43.3167 28.9434ZM35.9915 30.7259C36.2452 30.9595 36.6007 31.0982 37.7284 31.4001C38.266 31.5453 38.7803 31.7167 38.869 31.7793C39.4142 32.1699 39.1292 32.9257 38.3609 33.1097C37.9045 33.2153 37.2842 33.1596 36.9169 32.9709C36.6628 32.8448 36.5863 32.7557 36.4289 32.4225L36.2391 32.0315L35.4916 32.1063L35.5351 31.8102C35.5534 31.6466 35.5739 31.2118 35.5739 30.846V30.1775L35.6936 30.3676C35.7561 30.469 35.8902 30.6325 35.9915 30.7259ZM25.5736 9.07213C24.9954 9.09549 24.0218 9.25002 24.0218 9.31543C24.0218 9.3431 24.7089 9.6863 24.7603 9.6863C24.8103 9.6863 25.6081 10.0852 25.7838 10.1955C26.016 10.3429 26.1809 10.4776 26.1328 10.4776C26.1019 10.4776 25.2821 10.1614 24.972 10.027C24.7197 9.91954 23.6696 9.60796 23.1572 9.48649C22.8815 9.42252 22.7647 9.39772 22.2939 9.31219C21.5993 9.18461 20.7846 9.17815 20.4277 9.29494C19.9199 9.46026 19.806 9.66258 19.806 10.4119C19.806 10.8234 19.8261 10.9991 19.9167 11.37C19.9541 11.5317 20.0647 11.8857 20.1179 12.0061C20.1316 12.0431 20.1797 12.1599 20.2207 12.2645C20.2624 12.3672 20.3871 12.6321 20.4974 12.8484C21.1159 14.0746 22.0417 15.0981 23.3473 15.9984C23.758 16.2805 24.8789 16.8167 25.3274 16.9446C25.4414 16.9755 25.4798 17.0409 25.3867 17.0409C25.2821 17.0409 24.3366 16.7789 24.1419 16.6966C24.068 16.6645 23.9931 16.6349 23.9172 16.6079C23.2445 16.3351 22.3842 15.7759 21.6722 15.1402C20.8923 14.4462 20.2688 13.5943 19.843 12.6411C19.571 12.0262 19.3855 11.3078 19.3402 10.6828C19.3126 10.3263 19.2845 10.239 19.1907 10.2437C19.1598 10.2437 18.8666 10.2329 18.5406 10.216C17.6609 10.1783 16.4548 10.275 15.2631 10.4809C12.9822 10.8683 10.5223 11.7656 7.98939 13.1338C7.56797 13.3611 7.15171 13.5979 6.74092 13.8439C6.69313 13.8719 6.54147 13.9636 6.40311 14.0513C6.26475 14.1368 6.10231 14.2338 6.04338 14.2705C5.91256 14.346 4.465 15.3289 4.2925 15.4593C4.22674 15.5078 4.04597 15.6419 3.89467 15.7508C3.20755 16.2607 1.71075 17.4801 1.62522 17.6033C1.58282 17.6655 1.64822 17.6968 1.73878 17.6655C1.78371 17.6486 1.9005 17.6253 1.99394 17.6109C2.09097 17.5972 2.34002 17.5318 2.54738 17.4635C2.71383 17.4105 2.88108 17.3599 3.04907 17.3119C3.55974 17.1922 3.76674 17.1502 4.06789 17.1063C4.20194 17.0876 4.40283 17.0582 4.51675 17.0409C5.92047 16.8336 6.59035 16.7822 7.21458 16.8307C8.57338 16.9414 9.87252 17.1703 10.6161 17.4351C11.172 17.6346 12.3044 18.2466 12.8032 18.6146C13.09 18.831 14.0154 19.752 14.2192 20.0306C14.3784 20.2505 14.5541 20.442 14.5965 20.442C14.6087 20.442 14.6274 19.7409 14.6306 18.8859L14.64 17.3324L16.4581 17.3216C17.8884 17.3151 18.2855 17.3263 18.3106 17.3575C18.3448 17.4014 18.4274 17.5487 18.6998 18.0536C18.9604 18.5384 19.088 18.7717 19.167 18.9136C19.208 18.9887 19.3043 19.1677 19.3855 19.3075C19.4599 19.4494 19.6019 19.71 19.6982 19.8886C19.7952 20.0683 19.8746 20.2192 19.8746 20.2253C19.8746 20.2566 20.0162 20.442 20.0414 20.442C20.0558 20.442 20.0892 20.3903 20.1133 20.3332C20.1413 20.2703 20.2139 20.1337 20.2721 20.0306C20.3343 19.9263 20.4446 19.7237 20.5212 19.5835C20.5973 19.4415 20.7019 19.2471 20.7565 19.1537C20.9089 18.8824 21.0678 18.5866 21.1986 18.3465C21.2643 18.2222 21.3689 18.0303 21.4293 17.9164C21.4915 17.8028 21.582 17.6425 21.6305 17.5552C21.6658 17.4868 21.7054 17.4208 21.7491 17.3575C21.7754 17.3263 22.1836 17.3151 23.6556 17.3216L25.5254 17.3324L25.5344 20.3673C25.5427 22.7586 25.5517 23.3972 25.5876 23.3972C25.6074 23.394 25.7465 23.3145 25.8884 23.215C26.0879 23.0748 26.1748 22.9893 26.2668 22.8304C26.4789 22.4704 27.0754 21.9033 27.4772 21.6833C27.9642 21.4141 28.488 21.2175 29.0319 21.0997C29.5853 20.9829 29.747 20.9657 31.0012 20.92C33.2915 20.8409 33.6311 20.8266 33.6484 20.8097C33.6574 20.8 33.6265 20.7098 33.583 20.607C33.5348 20.5074 33.4507 20.322 33.3925 20.1991C33.1747 19.7269 33.1747 19.5698 33.4022 19.3388C33.5578 19.1785 33.9582 19.0369 34.6467 18.8996C34.7607 18.8744 34.9023 18.845 34.9619 18.8231C35.0194 18.8062 35.0927 18.7936 35.1236 18.7936C35.2095 18.7936 35.8977 18.6236 36.0429 18.5693C36.1428 18.5287 36.6815 18.4119 37.3248 18.2876C37.604 18.233 38.33 18.0881 38.9312 17.9677C39.3114 17.893 39.7085 17.8136 39.8117 17.7934C39.9159 17.7719 40.064 17.7421 40.1401 17.728C40.2163 17.7108 40.3162 17.6907 40.3648 17.6828C40.4125 17.672 40.6558 17.6253 40.9002 17.5739C41.0848 17.5336 41.2703 17.4977 41.4565 17.4661C41.6294 17.4492 42.9321 17.1361 43.2326 17.0409C43.7095 16.8857 43.8507 16.8246 44.1518 16.6219C44.4774 16.4005 44.5662 16.2805 44.8871 15.6419C45.244 14.9303 45.2954 14.8099 45.3953 14.5109C45.5505 14.0344 45.5415 13.8522 45.3432 13.6527C45.2066 13.5154 44.909 13.3735 44.6909 13.3422C44.5292 13.3225 44.5087 13.3282 44.4275 13.4155C44.3793 13.4673 44.3387 13.5277 44.3387 13.5496C44.3387 13.5791 44.2827 13.7321 44.1285 14.103C44.1145 14.14 44.0836 14.2338 44.0584 14.3082C44.0345 14.3899 44.0059 14.47 43.9725 14.5483C43.9276 14.645 43.9247 14.6277 43.9413 14.3596C43.9585 14.0948 44.0041 13.8719 44.1037 13.5359C44.1209 13.4705 44.1457 13.3595 44.1547 13.2908L44.172 13.1679L43.8137 13.0231C43.5187 12.9025 43.2249 12.7789 42.9325 12.6522C42.8173 12.6067 42.7019 12.562 42.586 12.5182C42.4663 12.4748 42.348 12.4275 42.2313 12.3762C42.1112 12.3238 41.9902 12.2735 41.8684 12.2253C41.6359 12.1365 40.8273 11.8627 40.1401 11.6456C39.9533 11.5867 38.8658 11.2611 38.7583 11.2298C38.5967 11.1881 38.4358 11.1434 38.2757 11.0958C38.2193 11.0818 38.0852 11.0447 37.981 11.0163C37.3737 10.8482 37.2145 10.8061 36.9963 10.745C36.8763 10.7094 36.7553 10.6773 36.6334 10.6487C36.568 10.6315 36.389 10.5898 36.2359 10.552C35.5747 10.3958 34.9127 10.2427 34.25 10.0928C34.1057 10.0586 33.9612 10.0253 33.8166 9.99285C33.7136 9.97006 33.6102 9.94933 33.5064 9.93068C33.3623 9.90431 33.2185 9.8758 33.0752 9.84515C32.8507 9.8009 32.6257 9.75921 32.4003 9.72008C32.199 9.68397 31.9975 9.64875 31.7958 9.61443C30.8428 9.44301 30.7766 9.43222 29.0664 9.24355C28.0116 9.12388 26.5953 9.02433 26.2496 9.04086C26.0243 9.04846 25.799 9.05888 25.574 9.07213M21.5795 10.7655C22.4905 11.062 23.3789 11.4634 23.988 11.8544C24.4707 12.1678 25.0723 12.6666 25.2344 12.8894L25.3044 12.9829L25.1718 12.9311C25.0999 12.9002 24.9476 12.8348 24.834 12.7802C24.2267 12.4981 24.1609 12.4729 24.1609 12.5358C24.1609 12.5527 24.3025 12.7802 24.4707 13.0339C24.6439 13.2908 24.7823 13.5187 24.7823 13.5384C24.7823 13.5557 24.7169 13.5277 24.6374 13.473C24.3262 13.2599 23.5967 12.9548 23.5546 13.0166C23.5457 13.0339 23.7703 13.3192 24.0563 13.6527C24.3395 13.9859 24.5749 14.2709 24.5749 14.291C24.5749 14.3431 24.5192 14.3363 24.2576 14.2396C23.988 14.1433 23.9176 14.1339 23.9176 14.1979C23.9176 14.2428 24.5019 15.0299 24.7341 15.3026C24.7995 15.377 24.8509 15.4489 24.8509 15.4661C24.8509 15.5488 24.0423 15.0234 23.4691 14.5699C22.6497 13.9176 21.858 13.04 21.4404 12.3159C21.0994 11.724 20.9812 11.4045 20.9812 11.0537C20.9812 10.8482 20.9919 10.8061 21.0685 10.7346C21.1123 10.6861 21.168 10.6483 21.1882 10.6483C21.2097 10.6483 21.3815 10.7005 21.5795 10.7655ZM32.488 11.9892C32.82 12.0481 33.2714 12.1257 33.4896 12.1653C33.7077 12.2026 33.9726 12.2476 34.0771 12.2648C34.1799 12.2846 34.3294 12.313 34.4056 12.3302C34.4807 12.3471 34.6302 12.3769 34.7326 12.4021C35.0758 12.4765 35.1585 12.4937 35.718 12.6249C36.3189 12.7665 36.4497 12.7927 36.6337 12.8319C36.789 12.8614 36.9449 12.9207 36.9449 12.9487C36.9449 12.9577 36.8299 13.0238 36.693 13.095C36.4091 13.2369 36.3502 13.2466 35.1829 13.2912C34.3869 13.3257 33.9636 13.3164 33.5758 13.2542C32.7949 13.1341 32.3913 12.9142 32.0765 12.4395C31.9662 12.277 31.8932 12.2303 31.6406 12.1649C31.5471 12.1369 31.4052 12.0995 31.3304 12.0751C31.2542 12.0514 31.1231 12.014 31.0393 11.9888C30.7914 11.9238 30.933 11.886 31.4332 11.886C31.7789 11.886 32.0208 11.9098 32.488 11.9892ZM36.6438 16.7904C36.6152 16.7963 36.5857 16.7963 36.5572 16.7904C36.5335 16.7789 36.5507 16.7732 36.5989 16.7732C36.647 16.7732 36.6643 16.7793 36.6438 16.7904ZM36.4943 16.8303C36.4943 16.8472 36.454 16.8724 36.4008 16.8821C36.1776 16.9427 35.9553 17.007 35.7342 17.0751C35.6864 17.0923 35.5315 17.1405 35.3899 17.1807C35.0331 17.2835 34.1698 17.5656 33.9381 17.6544C33.5036 17.8197 32.4797 18.3634 32.3352 18.5064C32.1218 18.717 32.0549 18.9445 32.0858 19.3776C32.0966 19.558 32.1218 19.7887 32.1415 19.8882C32.1821 20.1049 32.1588 20.1642 32.0761 20.0568C31.9924 19.9511 31.8159 19.5662 31.7646 19.3776C31.7369 19.2902 31.7056 19.1781 31.6884 19.1224C31.6258 18.9273 31.651 18.6966 31.7477 18.555C31.8785 18.3555 32.3489 18.0364 32.902 17.7715C33.1636 17.645 33.9273 17.3834 34.6298 17.1775C34.7714 17.1358 34.926 17.0876 34.9741 17.0751C35.4726 16.9069 36.4943 16.7448 36.4943 16.8303ZM25.5657 17.061C25.5564 17.0704 25.5251 17.0751 25.5003 17.0639C25.4723 17.0531 25.483 17.0438 25.5201 17.0438C25.5596 17.0406 25.5801 17.0503 25.5657 17.061Z" fill="#C60F0F"/>
<path d="M18.3196 23.7073V26.1122H20.041C21.3329 26.1122 21.7721 26.1014 21.803 26.0702C21.8548 26.0188 21.8655 21.3013 21.8141 21.3013C21.7973 21.3013 21.7721 21.3282 21.7613 21.3591C21.7487 21.3904 21.3714 21.9773 20.9218 22.6647C20.211 23.7508 20.013 24.0153 20.013 23.8816C20.013 23.8579 18.8353 22.02 18.5345 21.5758C18.4935 21.5182 18.4574 21.4573 18.4267 21.3936C18.399 21.3415 18.3649 21.3016 18.3476 21.3016C18.3336 21.3016 18.3196 22.3844 18.3196 23.7073Z" fill="#C60F0F"/>
</svg>
