<svg width="41" height="41" viewBox="0 0 41 41" fill="none" xmlns="http://www.w3.org/2000/svg">
<g clip-path="url(#clip0_1111_2)">
<path d="M7.26148 15.0547H39.187V38.6521H7.26148V15.0547Z" fill="white"/>
<path d="M0.480469 20.4712V40.4907H40.5195V0.45166H0.480469V20.4712ZM32.7455 18.8696C33.7045 19.0922 34.5761 19.5937 35.2504 20.311C35.6215 20.6975 35.9442 21.1278 36.2113 21.5923C36.2113 21.6435 34.4816 22.8127 33.4278 23.4661C33.3894 23.4917 33.2356 23.3252 33.0659 23.0721C32.8735 22.7402 32.6001 22.4624 32.2713 22.2647C31.9426 22.0669 31.569 21.9557 31.1856 21.9414C29.9716 21.8581 29.1901 22.4956 29.1965 23.543C29.1868 23.8037 29.2464 24.0624 29.3695 24.2925C29.6353 24.8467 30.1318 25.1766 31.6885 25.8492C34.5553 27.0824 35.7821 27.896 36.5445 29.0524C37.3965 30.3336 37.5855 32.4028 37.0089 33.9339C36.3683 35.5996 34.7987 36.7303 32.579 37.105C31.5651 37.2212 30.5408 37.2104 29.5296 37.073C27.9798 36.8175 26.5522 36.0734 25.4552 34.9493C25.0869 34.5425 24.3694 33.4823 24.4142 33.4054C24.5309 33.3183 24.6541 33.2401 24.7826 33.1716L26.2656 32.3516L27.4155 31.6853L27.6558 32.0409C28.0613 32.6207 28.5773 33.1149 29.1741 33.4951C30.4553 34.1678 32.2042 34.0749 33.0691 33.2965C33.3594 33.0113 33.5406 32.6333 33.581 32.2282C33.6214 31.8232 33.5184 31.4169 33.2901 31.0799C32.9698 30.6347 32.3291 30.2599 30.5386 29.4784C28.4726 28.5879 27.5821 28.037 26.7685 27.1593C26.2608 26.58 25.8858 25.8968 25.6698 25.1574C25.5089 24.3125 25.4851 23.4473 25.5994 22.5949C26.0254 20.5993 27.5212 19.206 29.7058 18.7928C30.7175 18.6678 31.7422 18.6958 32.7455 18.876V18.8696ZM23.3476 20.5481V22.1881H18.1489V36.9961H14.4621V22.1849H9.25062V20.5833C9.23428 20.031 9.24711 19.4782 9.28906 18.9273C9.31469 18.8985 12.4922 18.8985 16.3359 18.8985H23.3284L23.3476 20.5481Z" fill="#007ACC"/>
</g>
<defs>
<clipPath id="clip0_1111_2">
<rect width="41" height="41" fill="white"/>
</clipPath>
</defs>
</svg>
