<svg width="47" height="46" viewBox="0 0 47 46" fill="none" xmlns="http://www.w3.org/2000/svg">
<path d="M34.2126 33.1028C34.4947 30.755 34.4102 30.4103 36.1589 30.7909L36.6028 30.8297C37.9475 30.8908 39.7067 30.6134 40.7402 30.1333C42.9651 29.1008 44.284 27.3776 42.0908 27.83C37.0868 28.8625 36.7429 27.1681 36.7429 27.1681C42.0268 19.3283 44.2355 9.37612 42.3287 6.93992C37.1285 0.295435 28.1273 3.43745 27.9767 3.51867L27.9285 3.52765C26.9399 3.32245 25.8334 3.1999 24.5903 3.17978C22.3259 3.1424 20.6077 3.77347 19.3042 4.76175C19.3042 4.76175 3.24629 -1.85399 3.99343 13.0816C4.15227 16.2589 8.54743 37.1231 13.79 30.8211C15.7062 28.5168 17.5577 26.5683 17.5577 26.5683C18.477 27.1788 19.5781 27.4908 20.7324 27.3787L20.8219 27.3025C20.7939 27.5885 20.8061 27.8685 20.8575 28.1998C19.5073 29.7088 19.904 29.9737 17.2041 30.5293C14.4721 31.0921 16.0771 32.0944 17.1246 32.3564C18.395 32.674 21.3336 33.124 23.3195 30.3446L23.2405 30.6615C23.7702 31.0856 23.7346 33.708 23.8094 35.5814C23.8845 37.4552 24.0099 39.2035 24.3919 40.2346C24.7739 41.2656 25.2246 43.9203 28.7731 43.1599C31.7386 42.526 34.0059 41.6113 34.2126 33.1028Z" fill="black"/>
<path d="M27.6177 45.014C26.0483 45.014 25.0263 44.407 24.4056 43.8208C23.4687 42.9368 23.0972 41.7979 22.8751 41.1176L22.7791 40.8337C22.332 39.6269 22.1804 37.8894 22.0905 35.6519C22.0769 35.3159 22.0675 34.9698 22.0571 34.6029C22.0496 34.3344 22.0402 33.9977 22.0266 33.6455C21.4612 33.9151 20.861 34.1047 20.2434 34.209C19.1368 34.398 17.9473 34.3369 16.7071 34.0268C15.832 33.8079 14.9228 33.3544 14.4046 32.654C12.8941 33.9768 11.4534 33.7975 10.6685 33.5355C9.28386 33.0737 8.04473 31.776 6.88 29.5691C6.0502 27.9968 5.24772 25.9484 4.49447 23.4802C3.18275 19.1821 2.34936 14.655 2.27533 13.1687C2.04245 8.51656 3.29487 5.18946 5.99701 3.28082C10.2596 0.269976 16.7179 2.04062 19.0725 2.84454C20.6545 1.89112 22.5157 1.42716 24.6187 1.46059C25.7483 1.47891 26.8239 1.5781 27.8229 1.75635C28.8651 1.4286 30.9236 0.958179 33.28 0.987648C37.6216 1.0394 41.2194 2.73134 43.6836 5.88054C45.4424 8.12735 44.5727 12.8456 43.8981 15.4582C42.9487 19.1332 41.2851 23.0418 39.2417 26.4443C39.7966 26.4483 40.6005 26.3818 41.7433 26.1457C43.998 25.6803 44.6575 26.8893 44.8365 27.4305C45.5534 29.6018 42.4369 31.2427 41.4648 31.6941C40.2192 32.2723 38.1884 32.6245 36.5252 32.5483L36.4526 32.5437L36.0156 32.5052L35.9725 32.8696L35.9308 33.2258C35.819 37.5379 35.2031 40.2688 33.9355 42.0732C32.6069 43.965 30.7605 44.495 29.1339 44.8436C28.5791 44.9622 28.0749 45.014 27.6177 45.014ZM24.3151 29.3197C25.3282 30.1305 25.4169 31.656 25.4963 34.5069C25.5064 34.8627 25.5157 35.1994 25.5283 35.5139C25.5664 36.4662 25.6559 38.6962 26.0052 39.6384C26.0544 39.7718 26.0987 39.9069 26.1454 40.0503C26.5346 41.242 26.7297 41.8396 28.4127 41.4799C29.8254 41.1769 30.5517 40.9052 31.1202 40.0959C31.9464 38.9193 32.4086 36.5525 32.4934 33.0612L34.2123 33.1028L32.5052 32.898L32.5555 32.4718C32.7191 31.0666 32.8369 30.0517 33.776 29.3804C34.5296 28.8421 35.3881 28.8942 36.072 29.0175C35.3206 28.4497 35.1129 27.7837 35.0575 27.5106L34.9141 26.8044L35.317 26.2068C37.6375 22.764 39.5508 18.5327 40.5671 14.5975C41.6114 10.5542 41.293 8.40695 40.9746 8.00085C36.7595 2.6149 29.4502 4.83871 28.6869 5.09099L28.5579 5.16071L27.911 5.2811L27.5796 5.21246C26.6661 5.02271 25.6512 4.91777 24.5634 4.90016C22.8542 4.87141 21.4753 5.27535 20.3447 6.13318L19.5602 6.72795L18.6499 6.35312C16.7049 5.55782 10.9923 3.95896 7.97789 6.09401C6.30464 7.27923 5.5424 9.60151 5.71203 12.9965C5.76809 14.1174 6.52961 18.3606 7.78598 22.4758C9.52212 28.1629 11.0998 30.0521 11.7585 30.2717C11.8735 30.3105 12.1718 30.0787 12.4686 29.7222C13.7064 28.2385 14.988 26.792 16.3118 25.3845L17.3073 24.337L18.5108 25.1366C18.996 25.4589 19.5311 25.6419 20.0806 25.6764L22.9509 23.2283L22.5351 27.4718C22.5257 27.567 22.5211 27.6968 22.5584 27.9375L22.6835 28.7418L22.1409 29.3485L22.0783 29.4189L23.6553 30.1466L24.3151 29.3197Z" fill="black"/>
<path d="M42.0908 27.8299C37.0866 28.8624 36.7426 27.1679 36.7426 27.1679C42.0265 19.3278 44.2352 9.37528 42.3291 6.9398C37.129 0.295674 28.127 3.43769 27.9768 3.51927L27.9282 3.52789C26.9396 3.32269 25.8331 3.2005 24.5893 3.18038C22.3249 3.14336 20.6074 3.77406 19.304 4.76235C19.304 4.76235 3.24564 -1.85303 3.99242 13.0822C4.15127 16.2598 8.54642 37.1241 13.789 30.8221C15.7052 28.5178 17.5563 26.5692 17.5563 26.5692C18.476 27.1798 19.5767 27.4917 20.7307 27.3796L20.8205 27.3034C20.7925 27.5895 20.8054 27.8694 20.8565 28.2008C19.5059 29.7098 19.9027 29.9747 17.2027 30.5303C14.4707 31.093 16.0757 32.0953 17.1236 32.3573C18.3937 32.675 21.3326 33.1249 23.3182 30.3455L23.2388 30.6625C23.7681 31.0866 24.1397 33.4196 24.0775 35.5346C24.0154 37.6495 23.9733 39.1017 24.3905 40.2359C24.8074 41.3701 25.2229 43.9216 28.772 43.1612C31.7376 42.5258 33.2743 40.8788 33.4885 38.1318C33.6401 36.1786 33.9833 36.4675 34.0053 34.7213L34.2809 33.8947C34.5986 31.2472 34.3312 30.3933 36.1586 30.7904L36.6025 30.8293C37.9473 30.8904 39.7071 30.6129 40.7403 30.1328C42.9648 29.101 44.2841 27.3775 42.0908 27.8299Z" fill="#317CB8"/>
<path d="M27.7971 43.954C24.8387 43.954 23.9014 41.6113 23.518 40.6532C22.9566 39.2491 22.8355 33.8002 22.9606 29.3318C22.9624 29.2564 22.9792 29.1822 23.0099 29.1133C23.0405 29.0445 23.0845 28.9824 23.1393 28.9306C23.1941 28.8788 23.2586 28.8384 23.3291 28.8116C23.3995 28.7849 23.4746 28.7723 23.55 28.7747C23.6252 28.7768 23.6994 28.7936 23.7681 28.8244C23.8368 28.8551 23.8989 28.8991 23.9506 28.9538C24.0023 29.0085 24.0428 29.0728 24.0696 29.1432C24.0964 29.2135 24.1091 29.2885 24.107 29.3638C23.9629 34.5175 24.1674 39.188 24.5828 40.2273C25.2311 41.8477 26.2144 43.2651 28.9941 42.6696C31.633 42.1036 32.6213 41.1031 33.0615 38.5512C33.3994 36.5929 34.0674 31.0219 34.1497 29.9226C34.1552 29.8475 34.1755 29.7742 34.2094 29.7069C34.2433 29.6396 34.2901 29.5797 34.3472 29.5305C34.4043 29.4814 34.4705 29.444 34.5421 29.4205C34.6137 29.397 34.6892 29.3878 34.7643 29.3936C34.9158 29.4051 35.0567 29.4762 35.1559 29.5914C35.255 29.7066 35.3045 29.8565 35.2933 30.0081C35.2074 31.1527 34.5425 36.713 34.1918 38.7463C33.6721 41.7604 32.3284 43.1275 29.2346 43.7909C28.7088 43.9033 28.2312 43.9537 27.7971 43.954ZM11.756 32.5112C11.4974 32.5103 11.2406 32.4679 10.9956 32.3854C9.07397 31.7443 7.24367 28.6148 5.55533 23.083C4.27021 18.8722 3.45586 14.477 3.38435 13.0485C3.17267 8.81361 4.26302 5.8175 6.62591 4.14389C11.3003 0.831889 19.1638 3.98576 19.4962 4.12161C19.637 4.17913 19.7492 4.29024 19.8081 4.43049C19.867 4.57074 19.8678 4.72864 19.8103 4.86947C19.7528 5.01029 19.6417 5.1225 19.5014 5.1814C19.3612 5.2403 19.2033 5.24108 19.0624 5.18356C18.9866 5.15265 11.4462 2.13175 7.28644 5.08114C5.26603 6.51361 4.33849 9.17514 4.52931 12.9913C4.58933 14.1949 5.35013 18.4844 6.65178 22.748C8.159 27.6865 9.8743 30.8027 11.3582 31.2975C11.591 31.3752 12.2997 31.6113 13.3128 30.393C14.4942 28.9741 15.7199 27.5927 16.9881 26.2508C17.0942 26.145 17.2376 26.0849 17.3874 26.0834C17.5373 26.0819 17.6818 26.1391 17.79 26.2428C17.8982 26.3465 17.9616 26.4885 17.9664 26.6383C17.9713 26.7881 17.9174 26.9338 17.8161 27.0443C17.7989 27.0623 16.0742 28.8653 14.1947 31.1265C13.3045 32.1971 12.4514 32.5112 11.756 32.5112ZM36.707 27.6794C36.6031 27.6792 36.5011 27.6508 36.412 27.5972C36.323 27.5436 36.2501 27.4668 36.2014 27.375C36.1526 27.2832 36.1296 27.1799 36.135 27.0761C36.1404 26.9722 36.1739 26.8718 36.232 26.7856C41.5733 18.8596 43.4482 9.28259 41.8425 7.23056C39.8214 4.64809 36.9676 3.29936 33.3598 3.22137C30.6886 3.16387 28.5654 3.84597 28.2182 3.96492L28.1309 4.0005C27.782 4.11011 27.5142 3.91892 27.4132 3.69539C27.3557 3.56732 27.3469 3.42261 27.3887 3.28855C27.4305 3.15449 27.5199 3.04035 27.64 2.96765C27.6565 2.95795 27.709 2.93567 27.7942 2.9044C28.3839 2.68842 30.5394 2.04154 33.2092 2.07209C37.2012 2.1145 40.4988 3.6537 42.7449 6.52403C43.8076 7.88211 43.8101 11.0108 42.7517 15.1084C41.6729 19.2862 39.6428 23.7758 37.1825 27.4267C37.0725 27.591 36.8914 27.6794 36.707 27.6794ZM36.9802 31.3486C36.0681 31.3486 35.2505 31.2199 34.761 30.9267C34.2579 30.6252 34.162 30.2155 34.1494 29.998C34.0121 27.5866 35.3425 27.1669 36.021 26.9753C35.9265 26.8323 35.7921 26.6641 35.653 26.4905C35.2573 25.996 34.7154 25.319 34.2978 24.3063C34.2324 24.1481 34.0275 23.7805 33.7904 23.3546C32.5042 21.0482 29.8279 16.2487 31.5471 13.791C32.3428 12.6535 33.9273 12.2057 36.2618 12.4555C35.575 10.3632 32.3047 3.81829 24.5447 3.69108C22.2109 3.65226 20.2969 4.36994 18.8587 5.82217C15.6387 9.07415 15.7551 14.9582 15.7569 15.0171C15.7589 15.0924 15.746 15.1673 15.7191 15.2376C15.6921 15.3079 15.6515 15.3722 15.5997 15.4269C15.5479 15.4815 15.4858 15.5254 15.417 15.556C15.3482 15.5867 15.2741 15.6035 15.1988 15.6054C15.1235 15.6074 15.0486 15.5946 14.9783 15.5676C14.908 15.5406 14.8437 15.5 14.7891 15.4482C14.7344 15.3964 14.6906 15.3343 14.6599 15.2655C14.6293 15.1967 14.6125 15.1226 14.6105 15.0473C14.6033 14.7861 14.4833 8.61128 18.044 5.01501C19.7104 3.33206 21.904 2.50119 24.5638 2.54467C29.5282 2.62625 32.7237 5.15014 34.5299 7.25284C36.499 9.54458 37.4642 12.0724 37.5437 12.9162C37.603 13.5437 37.1527 13.6691 37.0617 13.6878L36.8547 13.6925C34.5637 13.3256 33.0939 13.5804 32.4862 14.4486C31.1784 16.3177 33.7102 20.8577 34.7912 22.7965C35.0672 23.291 35.2663 23.6486 35.3576 23.8693C35.7127 24.7303 36.1759 25.3089 36.5478 25.774C36.8752 26.1829 37.1588 26.5376 37.2601 26.9538C37.3072 27.0364 37.9753 28.0247 41.9395 27.2064C42.9332 27.0016 43.5291 27.1766 43.7113 27.7275C44.0696 28.811 42.0592 30.075 40.9462 30.5917C39.949 31.0553 38.3573 31.3486 36.9802 31.3486ZM35.2925 29.9035C35.4183 30.0304 36.0476 30.2493 37.3507 30.1932C38.5093 30.1436 39.7312 29.8917 40.4643 29.5513C41.4019 29.1158 42.028 28.6288 42.3521 28.2964L42.1724 28.3295C39.6377 28.8527 37.8448 28.783 36.8436 28.1221C36.7763 28.0777 36.7115 28.0296 36.6495 27.978C36.541 28.0208 36.4407 28.0488 36.3692 28.0689C35.8014 28.2281 35.2142 28.3931 35.2925 29.9035ZM18.9187 33.1074C18.2891 33.1074 17.6264 33.0215 16.9497 32.8522C16.2485 32.6768 15.0666 32.1489 15.0845 31.2817C15.105 30.3089 16.5199 30.0171 17.0525 29.9075C18.9766 29.5111 19.102 29.3523 19.7032 28.5886C19.8786 28.3661 20.0967 28.089 20.3943 27.757C20.836 27.2625 21.3186 27.012 21.8289 27.012C22.1843 27.012 22.4758 27.1324 22.6684 27.2125C23.2822 27.467 23.7943 28.0822 24.0049 28.8179C24.195 29.4816 24.1041 30.1206 23.7498 30.6169C22.5865 32.2459 20.9157 33.1074 18.9187 33.1074ZM16.3233 31.331C16.4961 31.4647 16.8426 31.6433 17.2282 31.7396C17.8143 31.8862 18.3829 31.9606 18.9191 31.9606C20.5528 31.9606 21.8645 31.2843 22.8172 29.9502C23.0159 29.6721 22.9563 29.3188 22.9031 29.133C22.7917 28.7438 22.515 28.3898 22.23 28.2716C22.0754 28.2076 21.9471 28.1588 21.8293 28.1588C21.766 28.1588 21.5734 28.1588 21.2492 28.5214C21.0255 28.7729 20.8105 29.0321 20.6045 29.2983C19.8556 30.2493 19.5124 30.572 17.2843 31.0309C16.7405 31.1423 16.4616 31.2559 16.3233 31.331ZM20.7325 28.686C20.5956 28.6858 20.4633 28.6366 20.3595 28.5473C20.2557 28.4581 20.1872 28.3347 20.1664 28.1994C20.1521 28.1042 20.1425 28.0084 20.1377 27.9122C18.6772 27.8849 17.2681 27.2582 16.1982 26.142C14.8455 24.7307 14.2299 22.7753 14.5095 20.7776C14.8132 18.608 14.6996 16.6929 14.6385 15.664C14.6216 15.378 14.6094 15.1713 14.6101 15.0283C14.6112 14.8468 14.6148 14.3656 16.2234 13.5502C16.7955 13.2602 17.9426 12.7542 19.1958 12.6244C21.2719 12.4099 22.6404 13.3345 23.0501 15.2285C24.1559 20.3416 23.1378 22.6032 22.3942 24.2549C22.2559 24.5625 22.125 24.8529 22.0205 25.1343L21.9281 25.3822C21.5353 26.4356 21.1957 27.3455 21.2999 28.0251C21.3114 28.0995 21.308 28.1755 21.2901 28.2486C21.2722 28.3217 21.24 28.3906 21.1955 28.4513C21.1509 28.512 21.0948 28.5634 21.0304 28.6024C20.966 28.6414 20.8946 28.6674 20.8201 28.6788L20.7325 28.686ZM15.7605 15.1871L15.7828 15.5965C15.846 16.6652 15.9639 18.654 15.6448 20.9368C15.4144 22.5845 15.9176 24.1927 17.0259 25.3485C17.9017 26.262 19.0542 26.7662 20.2387 26.7662H20.2631C20.3957 26.2074 20.616 25.6173 20.8532 24.9815L20.9449 24.735C21.0631 24.4173 21.2014 24.1097 21.3481 23.7841C22.0636 22.1942 22.9545 20.2151 21.9285 15.471C21.7254 14.5313 21.2327 13.9875 20.423 13.8082C18.7599 13.4409 16.2812 14.6919 15.7605 15.1871ZM19.2213 14.9438C19.1925 15.1465 19.5925 15.6877 20.1143 15.76C20.6351 15.8329 21.0807 15.4096 21.1091 15.2069C21.1375 15.0042 20.7379 14.7807 20.216 14.7081C19.6942 14.6355 19.249 14.7411 19.2213 14.9438ZM20.234 15.9594L20.0877 15.9494C19.7643 15.9044 19.4373 15.7007 19.2134 15.4038C19.1347 15.2996 19.0064 15.0976 19.0319 14.9172C19.0682 14.6527 19.3909 14.4942 19.8944 14.4942C20.0069 14.4942 20.124 14.5025 20.2419 14.519C20.5172 14.5571 20.7727 14.6366 20.9614 14.7419C21.2884 14.9244 21.3125 15.1282 21.2978 15.2335C21.2575 15.5257 20.7928 15.9594 20.234 15.9594ZM19.4114 14.9776C19.4276 15.1027 19.7374 15.5152 20.1406 15.5709L20.2344 15.5774C20.6067 15.5774 20.8848 15.2845 20.9175 15.1886C20.883 15.1232 20.6437 14.9607 20.1898 14.8975C20.0921 14.8837 19.9935 14.8766 19.8948 14.8763C19.6029 14.8763 19.4481 14.942 19.4114 14.9776ZM35.0819 14.5302C35.1103 14.7329 34.7107 15.2741 34.1893 15.3467C33.6682 15.4193 33.2222 14.9963 33.1934 14.7936C33.1661 14.5909 33.5657 14.367 34.0868 14.2948C34.6079 14.2218 35.0532 14.3279 35.0819 14.5302ZM34.0689 15.4502C33.5672 15.4502 33.1341 15.0599 33.0986 14.8065C33.0572 14.5025 33.5578 14.2714 34.0732 14.1999C34.1867 14.1841 34.2992 14.1762 34.4074 14.1762C34.8523 14.1762 35.147 14.3067 35.1765 14.5172C35.1955 14.6535 35.0909 14.8637 34.9109 15.0534C34.7919 15.1781 34.5422 15.3941 34.2018 15.4412L34.0689 15.4502ZM34.4078 14.3674C34.3081 14.3674 34.2056 14.3747 34.1001 14.3893C33.5823 14.4615 33.2732 14.6693 33.2883 14.7807C33.3056 14.9032 33.6362 15.2594 34.0692 15.2594L34.176 15.2518C34.4588 15.2126 34.6712 15.0279 34.7725 14.9215C34.9317 14.7544 34.995 14.597 34.9874 14.5435C34.9774 14.4723 34.7862 14.3674 34.4078 14.3674ZM35.8327 26.1703C35.7288 26.1704 35.6268 26.1422 35.5377 26.0888C35.4486 26.0354 35.3758 25.9587 35.3269 25.867C35.278 25.7754 35.255 25.6721 35.2602 25.5684C35.2655 25.4646 35.2989 25.3642 35.3569 25.278C36.578 23.4542 36.3545 21.5944 36.1385 19.7957C36.0462 19.0296 35.9513 18.2371 35.9757 17.4767C36.0009 16.6943 36.1004 16.0489 36.1964 15.4247C36.3103 14.6851 36.4181 13.9865 36.3735 13.157C36.3695 13.0818 36.3803 13.0066 36.4053 12.9356C36.4303 12.8646 36.4691 12.7992 36.5194 12.7432C36.5697 12.6871 36.6305 12.6415 36.6984 12.609C36.7663 12.5765 36.8399 12.5577 36.9151 12.5536C36.9903 12.5496 37.0655 12.5604 37.1366 12.5854C37.2076 12.6104 37.273 12.6492 37.329 12.6994C37.4421 12.801 37.5103 12.9434 37.5185 13.0952C37.5695 14.0432 37.4477 14.8339 37.3298 15.599C37.2389 16.1894 37.1448 16.8 37.1221 17.5134C37.1002 18.1868 37.1861 18.902 37.277 19.6588C37.507 21.5714 37.7676 23.7392 36.3099 25.9159C36.2574 25.9942 36.1863 26.0584 36.1031 26.1027C36.0199 26.1471 35.927 26.1703 35.8327 26.1703Z" fill="white"/>
</svg>
