<svg width="41" height="41" viewBox="0 0 41 41" fill="none" xmlns="http://www.w3.org/2000/svg">
<path d="M12.1607 2.2211C11.4816 2.24417 10.8346 2.40945 10.25 2.74642C9.0815 3.42099 8.38386 4.65868 8.07027 6.12347C7.75701 7.58858 7.79 9.33076 8.1023 11.2805C8.22274 12.0323 8.39891 12.8228 8.60263 13.631C7.80089 13.8584 7.02798 14.1018 6.31688 14.3734C4.47188 15.0781 2.9472 15.9205 1.83507 16.9247C0.722945 17.9289 0 19.1509 0 20.5001C0 21.8492 0.722625 23.0722 1.83507 24.076C2.94688 25.0805 4.47156 25.9229 6.31656 26.6276C7.02766 26.8993 7.80057 27.1421 8.60231 27.3698C8.39859 28.1779 8.22242 28.9685 8.10198 29.7199C7.78968 31.6706 7.75733 33.4122 8.07059 34.877C8.3845 36.3424 9.08118 37.5798 10.2497 38.2543C11.4182 38.9289 12.8378 38.9142 14.2635 38.4529C15.6889 37.9917 17.1816 37.0926 18.7143 35.8469C19.3049 35.367 19.9017 34.8199 20.5 34.2389C21.0977 34.8199 21.6948 35.367 22.2854 35.8469C23.8178 37.0929 25.3098 37.992 26.7355 38.4533C28.1609 38.9145 29.5815 38.9289 30.75 38.2547C31.9185 37.5798 32.6161 36.3424 32.9297 34.8773C33.243 33.4122 33.2094 31.6703 32.8971 29.7203C32.7766 28.9685 32.6011 28.1779 32.3974 27.3698C33.1991 27.1424 33.972 26.8989 34.6831 26.6276C36.5281 25.9233 38.0528 25.0805 39.1649 24.0763C40.2771 23.0722 41 21.8492 41 20.5001C41 19.1509 40.2774 17.9286 39.1649 16.9247C38.0528 15.9209 36.5281 15.0778 34.6831 14.3734C33.972 14.1021 33.1997 13.8584 32.398 13.631C32.6017 12.8228 32.7773 12.032 32.8977 11.2805C33.21 9.33076 33.2424 7.58858 32.9291 6.12347C32.6158 4.65836 31.9188 3.42099 30.75 2.74642C29.5812 2.07184 28.1619 2.08657 26.7362 2.54782C25.3108 3.00907 23.8181 3.90851 22.2854 5.15389C21.6948 5.63435 21.0971 6.18145 20.499 6.76249C19.901 6.18177 19.3043 5.63403 18.7136 5.15389C17.1816 3.90851 15.6902 3.00843 14.2648 2.54718C13.5518 2.31656 12.84 2.19804 12.1603 2.22046L12.1607 2.2211ZM12.2427 3.99724C12.6687 3.98506 13.1568 4.06354 13.7161 4.24388C14.834 4.60583 16.1745 5.38739 17.5896 6.53732C18.1348 6.97999 18.6925 7.49249 19.2543 8.03958C18.0807 9.30802 16.9167 10.7504 15.7904 12.3427C13.8484 12.522 12.0172 12.809 10.3314 13.1915C10.1392 12.4311 9.97389 11.6924 9.86274 10.9983C9.57446 9.19815 9.56805 7.64624 9.81405 6.49696C10.0597 5.34799 10.5194 4.64971 11.1414 4.29064C11.4525 4.11127 11.8166 4.00877 12.2427 3.99724ZM28.7577 3.99724C29.1837 4.00909 29.5479 4.11095 29.8589 4.29064C30.4809 4.64939 30.9406 5.34767 31.1863 6.49664C31.4319 7.6456 31.4265 9.19783 31.1382 10.9983C31.0271 11.6918 30.8621 12.4314 30.6696 13.1912C28.9841 12.809 27.1526 12.5217 25.2099 12.3427C24.0837 10.7507 22.919 9.30802 21.7454 8.03926C22.3072 7.49249 22.8655 6.97967 23.4107 6.53699C24.8258 5.38643 26.1663 4.60615 27.2845 4.2442C27.8435 4.06354 28.332 3.98539 28.758 3.99756L28.7577 3.99724ZM20.5 9.32179C21.3386 10.2371 22.1339 11.1911 22.8831 12.1809C22.1003 12.1457 21.3081 12.122 20.5 12.122C19.6922 12.122 18.9 12.1453 18.1169 12.1809C18.8658 11.1909 19.661 10.2368 20.5 9.32179ZM20.5 13.9048C21.7764 13.9048 23.0209 13.9551 24.2265 14.0458C24.9277 15.0725 25.59 16.1253 26.2121 17.2018C26.8334 18.279 27.414 19.3792 27.9527 20.5001C27.414 21.6207 26.8334 22.7207 26.2121 23.7977C25.5899 24.8745 24.9275 25.9276 24.2262 26.9547C23.0209 27.0453 21.7764 27.0959 20.5003 27.0959C19.2564 27.0957 18.0129 27.0487 16.7725 26.955C16.0716 25.9278 15.4094 24.8746 14.7875 23.7977C14.1663 22.7209 13.5857 21.6211 13.047 20.5007C13.5859 19.3799 14.1667 18.2797 14.7882 17.2024C15.4104 16.1257 16.0728 15.0727 16.7741 14.0458C18.014 13.9521 19.2566 13.9051 20.5 13.9048ZM14.4868 14.2773C14.0572 14.9459 13.6428 15.624 13.244 16.3113C12.8481 17.0003 12.4679 17.6981 12.1036 18.4043C11.6209 17.2605 11.1921 16.0948 10.8186 14.9109C11.9685 14.6547 13.1927 14.4401 14.4868 14.2773ZM26.5135 14.2773C27.7455 14.4311 28.9696 14.6425 30.1818 14.9109C29.8082 16.095 29.3794 17.261 28.8967 18.4049C28.5325 17.6984 28.1523 17.0003 27.7564 16.311C27.3575 15.6237 26.9431 14.9455 26.5135 14.277V14.2773ZM9.08566 15.3475C9.59752 16.9984 10.2647 18.7281 11.0812 20.4994C10.2644 22.2714 9.59816 24.0017 9.08566 25.6526C8.33133 25.4396 7.60902 25.2125 6.95238 24.962C5.24864 24.3118 3.90173 23.5405 3.0292 22.7525C2.15698 21.9652 1.78222 21.2182 1.78222 20.4997C1.78222 19.7816 2.15698 19.0353 3.0292 18.2479C3.90173 17.46 5.24896 16.689 6.95238 16.0387C7.60902 15.7879 8.33133 15.5605 9.08566 15.3472V15.3475ZM31.9143 15.3475C32.669 15.5608 33.3916 15.7883 34.0476 16.0394C35.7517 16.6896 37.0986 17.4603 37.9711 18.2479C38.8433 19.0359 39.2181 19.7822 39.2181 20.5001C39.2181 21.2185 38.8433 21.9655 37.9711 22.7528C37.0986 23.5408 35.7514 24.3115 34.0479 24.962C33.3913 25.2125 32.6684 25.4393 31.914 25.6526C31.4022 24.002 30.7353 22.2723 29.9194 20.5007C30.7359 18.7287 31.4022 16.9987 31.9143 15.3475ZM20.5 16.8459C19.5309 16.8461 18.6016 17.2311 17.9163 17.9164C17.2311 18.6016 16.846 19.531 16.8459 20.5001C16.846 21.4692 17.2311 22.3986 17.9164 23.0838C18.6018 23.7691 19.5312 24.1541 20.5003 24.1542C21.4694 24.154 22.3987 23.769 23.084 23.0837C23.7692 22.3985 24.1543 21.4691 24.1544 20.5001C24.1543 19.5309 23.7692 18.6015 23.0839 17.9163C22.3986 17.231 21.4691 16.846 20.5 16.8459ZM28.8967 22.5959C29.3792 23.7398 29.8078 24.9057 30.1811 26.0898C29.0318 26.3461 27.8076 26.561 26.5142 26.7241C26.9435 26.0552 27.3575 25.3767 27.756 24.6891C28.1519 24.0001 28.5324 23.3021 28.8967 22.5959ZM12.1036 22.5965C12.4679 23.3026 12.8481 24.0003 13.244 24.6891C13.643 25.3765 14.0573 26.0549 14.4868 26.7237C13.2547 26.5703 12.0306 26.3588 10.8186 26.0898C11.1921 24.9059 11.6209 23.7402 12.1036 22.5965ZM10.3307 27.8096C12.0162 28.1914 13.8478 28.4781 15.7904 28.6571C16.9167 30.2501 18.0813 31.6927 19.2549 32.9621C18.6931 33.5083 18.1355 34.0208 17.5903 34.4644C16.1751 35.6143 14.8334 36.3959 13.7151 36.7578C12.5973 37.1192 11.7628 37.0695 11.1408 36.7104C10.5187 36.351 10.0597 35.6534 9.81405 34.5044C9.56805 33.3552 9.57414 31.8032 9.86274 30.0021C9.97389 29.3087 10.1382 28.5694 10.3307 27.8096ZM30.669 27.8096C30.8611 28.5694 31.0264 29.3087 31.1376 30.0021C31.4259 31.8032 31.4323 33.3552 31.1863 34.5044C30.9406 35.6537 30.4809 36.3517 29.8589 36.7114C29.2368 37.0701 28.4027 37.1192 27.2845 36.7572C26.1663 36.3952 24.8258 35.6137 23.4107 34.4638C22.8658 34.0208 22.3075 33.5083 21.746 32.9615C22.9196 31.6931 24.0837 30.2497 25.2099 28.6571C27.1519 28.4781 28.9832 28.1914 30.669 27.8096ZM18.1169 28.8192C18.9108 28.8571 19.7055 28.877 20.5003 28.8788C21.2953 28.877 22.0901 28.8571 22.8841 28.8192C22.135 29.8097 21.3395 30.7642 20.5003 31.6796C19.6613 30.7642 18.8657 29.8097 18.1169 28.8192Z" fill="#61DAFB"/>
</svg>
