<svg width="32" height="46" viewBox="0 0 32 46" fill="none" xmlns="http://www.w3.org/2000/svg">
<g clip-path="url(#clip0_372_215)">
<path d="M8.33984 46.0001C12.6178 46.0001 16.0898 42.5654 16.0898 38.3334V30.6667H8.33984C4.06184 30.6667 0.589844 34.1014 0.589844 38.3334C0.589844 42.5654 4.06184 46.0001 8.33984 46.0001Z" fill="#0ACF83"/>
<path d="M0.589844 22.9999C0.589844 18.7679 4.06184 15.3333 8.33984 15.3333H16.0898V30.6666H8.33984C4.06184 30.6666 0.589844 27.2319 0.589844 22.9999Z" fill="#A259FF"/>
<path d="M0.589844 7.66667C0.589844 3.43467 4.06184 0 8.33984 0H16.0898V15.3333H8.33984C4.06184 15.3333 0.589844 11.8987 0.589844 7.66667Z" fill="#F24E1E"/>
<path d="M16.0898 0H23.8398C28.1178 0 31.5898 3.43467 31.5898 7.66667C31.5898 11.8987 28.1178 15.3333 23.8398 15.3333H16.0898V0Z" fill="#FF7262"/>
<path d="M31.5898 22.9999C31.5898 27.2319 28.1178 30.6666 23.8398 30.6666C19.5618 30.6666 16.0898 27.2319 16.0898 22.9999C16.0898 18.7679 19.5618 15.3333 23.8398 15.3333C28.1178 15.3333 31.5898 18.7679 31.5898 22.9999Z" fill="#1ABCFE"/>
</g>
<defs>
<clipPath id="clip0_372_215">
<rect width="31" height="46" fill="white" transform="translate(0.589844)"/>
</clipPath>
</defs>
</svg>
