<svg width="47" height="46" viewBox="0 0 47 46" fill="none" xmlns="http://www.w3.org/2000/svg">
<path d="M8.98412 39.1014L5.75549 2.875H41.2445L38.0115 39.0957L23.4784 43.125L8.98412 39.1014Z" fill="#1F78B9"/>
<path d="M23.5 40.0458L35.2444 36.7899L38.0073 5.83765H23.5V40.0458Z" fill="#33A9DC"/>
<path d="M23.5 18.962H29.3794L29.7847 14.4123H23.5V9.96899H23.5158H34.6406L34.5343 11.1607L33.4432 23.4053H23.5V18.962Z" fill="white"/>
<path d="M23.5273 30.5008L23.5072 30.5065L18.5593 29.1697L18.243 25.6262H15.8381H13.7825L14.4049 32.6024L23.5057 35.1295L23.5273 35.1238V30.5008Z" fill="#EBEBEB"/>
<path d="M29.0013 23.217L28.4665 29.1669L23.5115 30.5037V35.1267L32.6195 32.6025L32.687 31.8521L33.459 23.217H29.0013Z" fill="white"/>
<path d="M23.5158 9.96899V12.729V14.4008V14.4123H12.7978H12.7834L12.6943 13.4132L12.4916 11.1607L12.3853 9.96899H23.5158Z" fill="#EBEBEB"/>
<path d="M23.5 18.9622V21.7222V23.394V23.4055H18.6283H18.614L18.5248 22.4064L18.3236 20.1538L18.2172 18.9622H23.5Z" fill="#EBEBEB"/>
</svg>
