<svg width="45" height="45" viewBox="0 0 45 45" fill="none" xmlns="http://www.w3.org/2000/svg">
<g clip-path="url(#clip0_84_340)">
<path d="M0 0V45H45V0H0ZM19.1196 32.3022L14.959 23.7278L10.9448 32.2817H7.03239L12.7899 21.3131L7.2232 10.2217H11.2839L15.2251 18.6528L19.1333 10.2012H22.9451L17.3738 20.9652L23.2741 32.3022H19.1196ZM36.9577 31.4017C35.2388 32.2204 33.4379 32.5887 31.7189 32.5887C27.2783 32.6092 24.1065 29.867 24.1065 24.3008C24.251 18.5988 28.0503 15.4171 33.3766 15.8492V10.2217H37.0191V29.1712C37.0266 31.4312 37.2761 31.2138 36.9577 31.4017ZM33.3765 19.0621V29.1916C29.7811 30.1246 27.7932 27.9366 27.8104 24.1371C27.8239 20.2405 30.384 18.2182 33.3765 19.0621Z" fill="#898989"/>
</g>
<defs>
<clipPath id="clip0_84_340">
<rect width="45" height="45" fill="white"/>
</clipPath>
</defs>
</svg>
