<svg width="47" height="46" viewBox="0 0 47 46" fill="none" xmlns="http://www.w3.org/2000/svg">
<path opacity="0.2" d="M3.41151 23.0005C3.40303 23.2405 3.375 23.4763 3.375 23.7192C3.375 34.8681 12.3505 43.8436 23.4994 43.8436C34.6484 43.8436 43.6238 34.8681 43.6238 23.7192C43.6238 23.4763 43.5951 23.2405 43.5879 23.0005C43.2084 33.8116 34.4054 42.4062 23.4994 42.4062C12.5931 42.4062 3.791 33.8116 3.41151 23.0005Z" fill="black"/>
<path d="M43.6238 23.0006C43.6238 11.8517 34.6484 2.87622 23.4994 2.87622C12.3505 2.87622 3.375 11.8517 3.375 23.0006C3.375 34.1496 12.3505 43.1251 23.4994 43.1251C34.6484 43.1251 43.6238 34.1496 43.6238 23.0006Z" fill="#4F4F4F"/>
<path opacity="0.1" d="M23.5 2.87646C12.3511 2.87646 3.375 11.8511 3.375 23.0001C3.375 23.0817 3.38311 23.1611 3.38763 23.2415C3.6403 12.3156 12.5111 3.59381 23.5 3.59381C34.4889 3.59381 43.3597 12.3156 43.6124 23.2415C43.6169 23.1611 43.625 23.0816 43.625 23.0001C43.625 11.8511 34.6489 2.87646 23.5 2.87646Z" fill="white"/>
<path opacity="0.2" d="M34.1519 13.6606C33.5395 13.632 31.8137 13.8365 29.1165 15.7129C27.6075 15.2579 25.8851 15.0895 24.0894 15.0939C22.4468 15.0978 20.7433 15.2324 19.0877 15.7129C16.3895 13.8366 15.0106 13.6331 14.3975 13.662C14.1931 13.6716 14.0943 13.7027 14.0943 13.7027C13.0686 16.3636 13.7175 18.3321 13.9118 18.821C12.7068 20.1716 11.9998 21.8965 11.9998 24.0066C11.9998 31.415 16.8001 33.0745 20.9828 33.5624C20.4451 34.0454 20.1067 35.0442 19.9356 36.2928C18.8624 36.7877 15.9837 37.999 14.3035 35.0448C14.3035 35.0448 13.3094 33.1878 11.4186 33.0514C11.4186 33.0514 9.58053 33.0276 11.2909 34.2264C11.2909 34.2264 12.5256 34.8213 13.3826 37.055C13.3826 37.055 14.6552 40.455 19.8948 39.2871C19.8992 40.0402 19.9024 41.4486 19.9061 42.8022C21.072 43.0108 22.2721 43.1251 23.4998 43.1251C25.4998 43.1251 27.4276 42.8325 29.2484 42.2941C29.2532 40.4812 29.2582 38.4754 29.2582 37.128C29.2582 35.3252 28.5129 34.1453 27.8376 33.5483C32.033 33.07 36.4373 31.434 36.4373 24.0066C36.4373 21.8965 35.8505 20.1702 34.6433 18.8196C34.8364 18.3306 35.4846 16.3636 34.4566 13.7027C34.4566 13.7027 34.3575 13.6701 34.1533 13.6606H34.1519Z" fill="black"/>
<path d="M34.1519 12.9418C33.5395 12.9132 31.8137 13.1178 29.1165 14.9942C27.6075 14.5392 25.8851 14.3708 24.0894 14.3751C22.4468 14.3791 20.7433 14.5137 19.0877 14.9942C16.3895 13.1179 15.0106 12.9143 14.3975 12.9432C14.1931 12.9529 14.0943 12.9839 14.0943 12.9839C13.0686 15.6448 13.7175 17.6133 13.9118 18.1022C12.7068 19.4529 11.9998 21.1777 11.9998 23.2879C11.9998 30.6963 16.8001 32.3557 20.9828 32.8436C20.4451 33.3267 20.1067 34.3254 19.9356 35.574C18.8624 36.0689 15.9837 37.2802 14.3035 34.326C14.3035 34.326 13.3094 32.469 11.4186 32.3326C11.4186 32.3326 9.58053 32.3089 11.2909 33.5076C11.2909 33.5076 12.5256 34.1026 13.3826 36.3363C13.3826 36.3363 14.6552 39.7363 19.8948 38.5683C19.9001 39.4754 19.9044 41.1663 19.9089 42.8022C21.074 43.0105 22.273 43.1251 23.4998 43.1251C25.4993 43.1251 27.4266 42.8322 29.247 42.2941C29.2524 40.2995 29.2582 37.9441 29.2582 36.4093C29.2582 34.6064 28.5129 33.4266 27.8376 32.8296C32.033 32.3513 36.4373 30.7152 36.4373 23.2879C36.4373 21.1777 35.8505 19.4515 34.6433 18.1008C34.8364 17.6118 35.4846 15.6448 34.4566 12.9839C34.4566 12.9839 34.3575 12.9514 34.1533 12.9418H34.1519Z" fill="white"/>
</svg>
