<svg width="24" height="22" viewBox="0 0 24 22" fill="none" xmlns="http://www.w3.org/2000/svg">
<path d="M6.95699 0.33801C6.62034 0.346011 6.29117 0.438881 5.99999 0.60801C5.76999 0.740594 5.56838 0.917214 5.40669 1.12777C5.245 1.33833 5.1264 1.57869 5.05767 1.83512C4.98895 2.09155 4.97144 2.359 5.00616 2.6222C5.04087 2.8854 5.12713 3.13917 5.25999 3.36901L8.49799 8.97901H2.02199C1.48585 8.97901 0.971677 9.19199 0.592572 9.57109C0.213467 9.9502 0.000488281 10.4644 0.000488281 11.0005C0.000488281 11.5366 0.213467 12.0508 0.592572 12.4299C0.971677 12.809 1.48585 13.022 2.02199 13.022H8.49799L5.25999 18.63C5.12147 18.8602 5.0302 19.1157 4.99153 19.3815C4.95286 19.6474 4.96755 19.9183 5.03475 20.1784C5.10195 20.4385 5.22031 20.6826 5.38292 20.8965C5.54552 21.1103 5.74912 21.2896 5.9818 21.4239C6.21448 21.5582 6.47159 21.6447 6.73811 21.6785C7.00463 21.7123 7.27521 21.6927 7.53404 21.6207C7.79288 21.5488 8.03478 21.426 8.24561 21.2595C8.45645 21.093 8.63199 20.8861 8.76199 20.651L12 15.045L15.238 20.652C15.5112 21.106 15.9517 21.4346 16.4647 21.5671C16.9777 21.6997 17.5222 21.6256 17.9811 21.3607C18.4401 21.0959 18.7767 20.6615 18.9186 20.151C19.0605 19.6405 18.9964 19.0947 18.74 18.631L15.502 13.021H21.979C22.5073 13.0093 23.0101 12.7911 23.3796 12.4133C23.7491 12.0355 23.956 11.528 23.956 10.9995C23.956 10.471 23.7491 9.96355 23.3796 9.58573C23.0101 9.2079 22.5073 8.98976 21.979 8.97801H15.502L18.74 3.37001C18.8785 3.13983 18.9698 2.88435 19.0084 2.61849C19.0471 2.35264 19.0324 2.08175 18.9652 1.82164C18.898 1.56153 18.7797 1.31741 18.6171 1.10356C18.4545 0.889711 18.2509 0.710408 18.0182 0.576126C17.7855 0.441844 17.5284 0.355278 17.2619 0.321482C16.9954 0.287687 16.7248 0.307342 16.4659 0.379297C16.2071 0.451252 15.9652 0.574066 15.7544 0.740564C15.5435 0.907062 15.368 1.1139 15.238 1.34901L12 6.95501L8.76199 1.34801C8.58008 1.03262 8.3163 0.772252 7.99857 0.594461C7.68083 0.41667 7.32095 0.328062 6.95699 0.33801ZM16.916 1.34401C17.109 1.33101 17.309 1.37501 17.494 1.48201C17.6105 1.54684 17.7129 1.63442 17.7949 1.73954C17.877 1.84467 17.9371 1.96521 17.9717 2.094C18.0063 2.2228 18.0147 2.35724 17.9964 2.48933C17.978 2.62143 17.9334 2.7485 17.865 2.86301L13.752 9.98801H21.978C22.549 9.98801 22.99 10.429 22.99 11C22.99 11.571 22.55 12.012 21.978 12.012H14.92L13.752 9.98801L12.584 7.96501L16.114 1.85301C16.292 1.54501 16.594 1.36501 16.916 1.34301V1.34401ZM6.98199 1.34801C7.34199 1.33801 7.68999 1.51401 7.88699 1.85401L11.416 7.96401L10.248 9.98801L9.07999 12.012H2.02199C1.45099 12.012 1.00999 11.571 1.00999 11C1.00999 10.429 1.44999 9.98801 2.02199 9.98801H10.248L6.13499 2.86301C6.06674 2.7486 6.02214 2.62167 6.00381 2.48972C5.98549 2.35777 5.99383 2.22348 6.02833 2.09481C6.06283 1.96614 6.12279 1.8457 6.20466 1.74061C6.28654 1.63552 6.38866 1.54793 6.50499 1.48301C6.65014 1.39869 6.81418 1.35226 6.98199 1.34801ZM9.66599 13.022H14.334L17.865 19.137C17.9332 19.2514 17.9778 19.3784 17.9962 19.5103C18.0145 19.6423 18.0061 19.7765 17.9716 19.9052C17.9371 20.0339 17.8772 20.1543 17.7953 20.2594C17.7134 20.3645 17.6113 20.4521 17.495 20.517C17.3805 20.5856 17.2534 20.6304 17.1212 20.6489C16.9891 20.6674 16.8545 20.6592 16.7256 20.6247C16.5967 20.5901 16.4761 20.5301 16.3708 20.448C16.2656 20.366 16.1779 20.2636 16.113 20.147L12 13.025L7.88699 20.146C7.82224 20.2626 7.73473 20.3651 7.62964 20.4472C7.52455 20.5294 7.40403 20.5896 7.27523 20.6243C7.14642 20.659 7.01196 20.6675 6.87982 20.6492C6.74768 20.631 6.62055 20.5863 6.50599 20.518C6.38944 20.4532 6.2871 20.3656 6.20504 20.2605C6.12297 20.1554 6.06286 20.0348 6.02826 19.906C5.99366 19.7772 5.98527 19.6428 6.00361 19.5107C6.02194 19.3786 6.06662 19.2515 6.13499 19.137L9.66599 13.022Z" fill="white"/>
</svg>
