<svg width="26" height="29" viewBox="0 0 26 29" fill="none" xmlns="http://www.w3.org/2000/svg">
<path d="M0 25.3V10.9C0 10.3933 0.115375 9.91333 0.346125 9.46C0.576875 9.00667 0.894833 8.63333 1.3 8.34L11.05 1.14C11.6187 0.713333 12.2687 0.5 13 0.5C13.7312 0.5 14.3812 0.713333 14.95 1.14L24.7 8.34C25.1062 8.63333 25.4247 9.00667 25.6555 9.46C25.8862 9.91333 26.0011 10.3933 26 10.9V25.3C26 26.18 25.6815 26.9336 25.0445 27.5608C24.4075 28.188 23.6427 28.5011 22.75 28.5H17.875C17.4146 28.5 17.0289 28.3464 16.718 28.0392C16.4071 27.732 16.2511 27.3523 16.25 26.9V18.9C16.25 18.4467 16.094 18.0669 15.782 17.7608C15.47 17.4547 15.0843 17.3011 14.625 17.3H11.375C10.9146 17.3 10.5289 17.4536 10.218 17.7608C9.90708 18.068 9.75108 18.4477 9.75 18.9V26.9C9.75 27.3533 9.594 27.7336 9.282 28.0408C8.97 28.348 8.58433 28.5011 8.125 28.5H3.25C2.35625 28.5 1.59142 28.1869 0.955499 27.5608C0.319583 26.9347 0.00108333 26.1811 0 25.3Z" fill="#FAFAFA"/>
</svg>
