<svg width="45" height="45" viewBox="0 0 45 45" fill="none" xmlns="http://www.w3.org/2000/svg">
<mask id="mask0_84_343" style="mask-type:luminance" maskUnits="userSpaceOnUse" x="4" y="4" width="37" height="37">
<path d="M36.5625 5.625H8.4375C6.8842 5.625 5.625 6.8842 5.625 8.4375V36.5625C5.625 38.1158 6.8842 39.375 8.4375 39.375H36.5625C38.1158 39.375 39.375 38.1158 39.375 36.5625V8.4375C39.375 6.8842 38.1158 5.625 36.5625 5.625Z" fill="white" stroke="white" stroke-width="2" stroke-linejoin="round"/>
<path d="M16.875 16.875C16.875 16.1291 17.1713 15.4137 17.6988 14.8863C18.2262 14.3588 18.9416 14.0625 19.6875 14.0625H22.5V19.6875H19.6875C18.9416 19.6875 18.2262 19.3912 17.6988 18.8637C17.1713 18.3363 16.875 17.6209 16.875 16.875ZM16.875 22.5C16.875 21.7541 17.1713 21.0387 17.6988 20.5113C18.2262 19.9838 18.9416 19.6875 19.6875 19.6875H22.5V25.3125H19.6875C18.9416 25.3125 18.2262 25.0162 17.6988 24.4887C17.1713 23.9613 16.875 23.2459 16.875 22.5ZM16.875 28.125C16.875 27.3791 17.1713 26.6637 17.6988 26.1363C18.2262 25.6088 18.9416 25.3125 19.6875 25.3125H22.5V28.125C22.5 28.8709 22.2037 29.5863 21.6762 30.1137C21.1488 30.6412 20.4334 30.9375 19.6875 30.9375C18.9416 30.9375 18.2262 30.6412 17.6988 30.1137C17.1713 29.5863 16.875 28.8709 16.875 28.125ZM22.5 14.0625H25.3125C26.0584 14.0625 26.7738 14.3588 27.3012 14.8863C27.8287 15.4137 28.125 16.1291 28.125 16.875C28.125 17.6209 27.8287 18.3363 27.3012 18.8637C26.7738 19.3912 26.0584 19.6875 25.3125 19.6875H22.5V14.0625Z" fill="black"/>
<path d="M22.5 14.0625H19.6875C18.9416 14.0625 18.2262 14.3588 17.6988 14.8863C17.1713 15.4137 16.875 16.1291 16.875 16.875C16.875 17.6209 17.1713 18.3363 17.6988 18.8637C18.2262 19.3912 18.9416 19.6875 19.6875 19.6875M22.5 14.0625V19.6875M22.5 14.0625H25.3125C26.0584 14.0625 26.7738 14.3588 27.3012 14.8863C27.8287 15.4137 28.125 16.1291 28.125 16.875C28.125 17.6209 27.8287 18.3363 27.3012 18.8637C26.7738 19.3912 26.0584 19.6875 25.3125 19.6875H22.5M22.5 19.6875H19.6875M22.5 19.6875V25.3125M19.6875 19.6875C18.9416 19.6875 18.2262 19.9838 17.6988 20.5113C17.1713 21.0387 16.875 21.7541 16.875 22.5C16.875 23.2459 17.1713 23.9613 17.6988 24.4887C18.2262 25.0162 18.9416 25.3125 19.6875 25.3125M22.5 25.3125H19.6875M22.5 25.3125V28.125C22.5 28.8709 22.2037 29.5863 21.6762 30.1137C21.1488 30.6412 20.4334 30.9375 19.6875 30.9375C18.9416 30.9375 18.2262 30.6412 17.6988 30.1137C17.1713 29.5863 16.875 28.8709 16.875 28.125C16.875 27.3791 17.1713 26.6637 17.6988 26.1363C18.2262 25.6088 18.9416 25.3125 19.6875 25.3125" stroke="black" stroke-width="2" stroke-linejoin="round"/>
<path d="M22.5 22.5C22.5 21.7541 22.7963 21.0387 23.3238 20.5113C23.8512 19.9838 24.5666 19.6875 25.3125 19.6875C26.0584 19.6875 26.7738 19.9838 27.3012 20.5113C27.8287 21.0387 28.125 21.7541 28.125 22.5C28.125 23.2459 27.8287 23.9613 27.3012 24.4887C26.7738 25.0162 26.0584 25.3125 25.3125 25.3125C24.5666 25.3125 23.8512 25.0162 23.3238 24.4887C22.7963 23.9613 22.5 23.2459 22.5 22.5Z" fill="black" stroke="black" stroke-width="2" stroke-linejoin="round"/>
</mask>
<g mask="url(#mask0_84_343)">
<path d="M0 0H45V45H0V0Z" fill="#898989"/>
</g>
</svg>
