<svg width="49" height="46" viewBox="0 0 49 46" fill="none" xmlns="http://www.w3.org/2000/svg">
<g clip-path="url(#clip0_372_231)">
<mask id="mask0_372_231" style="mask-type:luminance" maskUnits="userSpaceOnUse" x="0" y="0" width="49" height="46">
<path d="M48.0412 0H0.589844V46H48.0412V0Z" fill="white"/>
</mask>
<g mask="url(#mask0_372_231)">
<path d="M39.6384 0H8.99268C4.35192 0 0.589844 3.74052 0.589844 8.35469V37.6453C0.589844 42.2595 4.35192 46 8.99268 46H39.6384C44.2791 46 48.0412 42.2595 48.0412 37.6453V8.35469C48.0412 3.74052 44.2791 0 39.6384 0Z" fill="#330000"/>
<path d="M23.5841 27.6055H16.2309L14.7348 32.2264C14.7145 32.3106 14.6651 32.3852 14.5954 32.4372C14.5256 32.4892 14.4399 32.5154 14.3528 32.5113H10.6285C10.4161 32.5113 10.3418 32.3952 10.4057 32.1631L16.772 13.933C16.8357 13.7431 16.8994 13.5268 16.9631 13.2841C17.0463 12.8618 17.089 12.4327 17.0904 12.0023C17.0861 11.9723 17.0888 11.9416 17.0985 11.9127C17.1082 11.8839 17.1245 11.8577 17.1461 11.8362C17.1677 11.8147 17.1941 11.7985 17.2231 11.7889C17.2521 11.7792 17.2829 11.7765 17.3132 11.7808H22.3744C22.5227 11.7808 22.6076 11.8335 22.6291 11.939L29.855 32.1947C29.9187 32.4059 29.8549 32.5114 29.664 32.5113H25.5258C25.4547 32.5191 25.3832 32.5009 25.3246 32.4601C25.2661 32.4194 25.2244 32.3588 25.2075 32.2897L23.5841 27.6055ZM17.3768 23.6177H22.4063C22.279 23.1959 22.1304 22.7211 21.9607 22.1935C21.7905 21.6663 21.6102 21.1019 21.4195 20.5002C21.2285 19.8989 21.0375 19.2976 20.8465 18.6962C20.6555 18.0949 20.4805 17.5146 20.3213 16.9554C20.1621 16.3967 20.0189 15.885 19.8916 15.4205H19.8598C19.6806 16.2753 19.4574 17.1204 19.1913 17.9524C18.8939 18.9019 18.5914 19.8725 18.284 20.8642C17.9761 21.8562 17.6737 22.7741 17.3768 23.6177Z" fill="#FF9A00"/>
<path d="M34.1519 15.1356C33.8272 15.1486 33.5035 15.0933 33.2017 14.9733C32.9 14.8533 32.6272 14.6714 32.4011 14.4394C32.1756 14.1973 32.0005 13.9133 31.8857 13.6037C31.771 13.2941 31.719 12.965 31.7326 12.6353C31.721 12.3089 31.7788 11.9838 31.9022 11.6811C32.0256 11.3784 32.2119 11.105 32.4488 10.8788C32.6834 10.6549 32.9604 10.4794 33.2636 10.3627C33.5668 10.2458 33.8904 10.19 34.2155 10.1983C34.9795 10.1983 35.579 10.4251 36.014 10.8788C36.2336 11.1145 36.4043 11.391 36.5162 11.6924C36.6282 11.9938 36.6793 12.3143 36.6665 12.6353C36.6798 12.9663 36.6261 13.2965 36.5085 13.6064C36.391 13.9163 36.212 14.1996 35.9822 14.4394C35.742 14.6748 35.4553 14.8582 35.1403 14.978C34.8253 15.0978 34.4888 15.1515 34.1519 15.1356ZM31.9554 32.1947V17.0662C31.9554 16.8764 32.04 16.7814 32.2101 16.7814H36.1254C36.2951 16.7814 36.3799 16.8763 36.3801 17.0662V32.1947C36.3801 32.4059 36.2952 32.5114 36.1254 32.5113H32.2419C32.051 32.5113 31.9555 32.4057 31.9554 32.1947Z" fill="#FF9A00"/>
</g>
</g>
<defs>
<clipPath id="clip0_372_231">
<rect width="48" height="46" fill="white" transform="translate(0.589844)"/>
</clipPath>
</defs>
</svg>
