<svg width="47" height="46" viewBox="0 0 47 46" fill="none" xmlns="http://www.w3.org/2000/svg">
<g clip-path="url(#clip0_87_1651)">
<path d="M0.5 0H46.5V46H0.5" fill="#F7DF1E"/>
<path d="M29.6094 33.2422C30.6276 34.9792 31.9753 35.8477 33.6523 35.8477C35.7487 35.8477 36.7969 35.0391 36.7969 33.4219C36.7969 32.4336 35.4492 31.5352 33.293 30.6367C29.2799 29.319 27.3034 27.0729 27.3633 23.8984C27.3633 20.6641 29.7891 18.1484 33.6523 18.1484C36.5273 18.1484 38.5638 19.3164 39.7617 21.6523L36.4375 23.8086C35.7188 22.4909 34.7904 21.862 33.6523 21.9219C32.3346 21.9818 31.6458 22.6107 31.5859 23.8086C31.5859 25.0664 32.3945 25.6055 35.0898 26.7734C38.9531 28.3008 41.1094 30.0078 41.1094 33.6914C40.9297 37.5846 38.5638 39.5911 34.0117 39.7109C30.2383 39.7109 27.5729 38.2435 26.0156 35.3086L29.6094 33.2422ZM14.3359 33.6016C15.0547 34.7695 15.5039 35.8477 17.3008 35.8477C18.7383 35.8477 19.457 34.9492 19.457 33.1523V18.2383H23.7695V32.9727C23.7096 37.2253 21.5534 39.3815 17.3008 39.4414C14.1263 39.3815 11.9701 38.0638 10.832 35.4883L14.3359 33.6016Z" fill="black"/>
</g>
<defs>
<clipPath id="clip0_87_1651">
<rect width="46" height="46" fill="white" transform="translate(0.5)"/>
</clipPath>
</defs>
</svg>
