<svg width="40" height="40" viewBox="0 0 40 40" fill="none" xmlns="http://www.w3.org/2000/svg">
<g clip-path="url(#clip0_156_109)">
<path d="M10 9.08594C15.52 9.08594 20 13.5659 20 19.0859V20.0002H0.914219C0.411406 20.0002 0 19.5887 0 19.0859C0 13.5659 4.48 9.08594 10 9.08594Z" fill="#FBBB05"/>
<path d="M30.9142 10C30.9142 15.52 26.4342 20 20.9142 20H20V0.914219C20 0.411406 20.4114 0 20.9142 0C26.4342 0 30.9142 4.48 30.9142 10Z" fill="#E94335"/>
<path d="M30 30.9142C24.48 30.9142 20 26.4342 20 20.9142V20H39.0858C39.5886 20 40 20.4114 40 20.9142C40 26.4342 35.52 30.9142 30 30.9142Z" fill="#4285F4"/>
<path d="M9.08582 30C9.08582 24.48 13.5658 20 19.0858 20H20V39.0858C20 39.5886 19.5886 40 19.0858 40C13.5658 40 9.08582 35.52 9.08582 30Z" fill="#0F9D58"/>
</g>
<defs>
<clipPath id="clip0_156_109">
<rect width="40" height="40" fill="white"/>
</clipPath>
</defs>
</svg>
