<svg width="45" height="45" viewBox="0 0 45 45" fill="none" xmlns="http://www.w3.org/2000/svg">
<path d="M19.5938 19.65C19.6221 20.2193 19.4501 20.7806 19.1075 21.2362C18.765 21.6918 18.2736 22.0129 17.7188 22.1438C16.74 22.4328 15.7192 22.5533 14.7 22.5C14.4375 22.5 14.4188 22.3313 14.4188 22.1438V17.3625C14.4188 17.2313 14.55 17.0063 14.625 17.0063C15.6976 16.8862 16.7829 16.956 17.8313 17.2125C18.3589 17.3571 18.8212 17.6776 19.1417 18.1209C19.4623 18.5642 19.6218 19.1037 19.5938 19.65Z" fill="#898989"/>
<path d="M31.875 3.75H13.125C10.6386 3.75 8.25403 4.73772 6.49587 6.49587C4.73772 8.25403 3.75 10.6386 3.75 13.125V31.875C3.75 34.3614 4.73772 36.746 6.49587 38.5041C8.25403 40.2623 10.6386 41.25 13.125 41.25H31.875C34.3614 41.25 36.746 40.2623 38.5041 38.5041C40.2623 36.746 41.25 34.3614 41.25 31.875V13.125C41.25 10.6386 40.2623 8.25403 38.5041 6.49587C36.746 4.73772 34.3614 3.75 31.875 3.75ZM20.625 24.375C19.6787 24.976 18.5942 25.3246 17.475 25.3875H14.9625C14.4375 25.3875 14.4375 25.3875 14.4375 25.8938V30.2437C14.4375 30.6187 14.325 30.7312 13.95 30.7312H11.475C11.1187 30.7312 11.025 30.6 11.025 30.2625V14.4563C11.025 14.0813 11.025 13.9688 11.4938 13.9688H17.3625C18.4337 13.9978 19.4796 14.3012 20.4 14.85C21.1949 15.2979 21.8567 15.9487 22.3179 16.736C22.7791 17.5233 23.0231 18.4188 23.025 19.3313C23.1335 20.312 22.9663 21.3035 22.5424 22.1945C22.1184 23.0854 21.4544 23.8406 20.625 24.375ZM31.725 30.5625C30.0944 31.1978 28.3091 31.322 26.6062 30.9187C26.095 30.8062 25.595 30.6562 25.1063 30.4688C25.0309 30.4334 24.9646 30.3812 24.9126 30.3162C24.8606 30.2511 24.8242 30.1751 24.8062 30.0937V27.2625C25.4062 27.4875 25.9688 27.75 26.55 27.9375C27.5241 28.2488 28.5555 28.3385 29.5688 28.2C29.7713 28.1625 29.965 28.1 30.15 28.0125C30.2599 27.9644 30.3554 27.8886 30.4273 27.7925C30.4991 27.6965 30.5448 27.5834 30.5599 27.4644C30.575 27.3454 30.559 27.2245 30.5135 27.1135C30.4679 27.0026 30.3944 26.9053 30.3 26.8313C29.8711 26.5343 29.4123 26.283 28.9313 26.0812C28.1625 25.7062 27.375 25.4062 26.6437 24.975C25.9835 24.6538 25.4445 24.1282 25.1067 23.4763C24.7689 22.8244 24.6504 22.0809 24.7687 21.3563C24.8641 20.6588 25.1538 20.0024 25.6048 19.4619C26.0557 18.9214 26.6497 18.5188 27.3187 18.3C28.5246 17.8922 29.8114 17.7829 31.0687 17.9813C31.6687 17.9812 32.25 18.2063 32.85 18.3188C33.1688 18.3188 33.2812 18.5813 33.2625 18.9V21.0938C33.2625 21.5063 33.1687 21.5437 32.7937 21.3937C31.6227 20.8516 30.3282 20.6315 29.0437 20.7562C28.8618 20.7774 28.6844 20.8281 28.5187 20.9062C28.4063 20.9504 28.3073 21.0232 28.2316 21.1174C28.1559 21.2116 28.1061 21.3239 28.0871 21.4432C28.0682 21.5626 28.0808 21.6848 28.1236 21.7978C28.1664 21.9108 28.238 22.0107 28.3312 22.0875C28.8737 22.4487 29.4425 22.7612 30.0375 23.025C30.75 23.3813 31.5 23.6625 32.1938 24.0562C32.8233 24.3427 33.3447 24.8229 33.682 25.4267C34.0194 26.0305 34.1549 26.7263 34.0688 27.4125C34.0095 28.0971 33.7555 28.7504 33.3369 29.2953C32.9183 29.8402 32.3524 30.2539 31.7062 30.4875L31.725 30.5625Z" fill="#898989"/>
</svg>
