<svg width="45" height="45" viewBox="0 0 45 45" fill="none" xmlns="http://www.w3.org/2000/svg">
<path d="M19.5187 17.775C20.175 19.9125 20.85 22.05 21.525 24.225H17.55C18.225 22.05 18.8625 19.9125 19.5187 17.775Z" fill="#898989"/>
<path d="M31.875 3.75H13.125C10.6386 3.75 8.25403 4.73772 6.49587 6.49587C4.73772 8.25403 3.75 10.6386 3.75 13.125V31.875C3.75 34.3614 4.73772 36.746 6.49587 38.5041C8.25403 40.2623 10.6386 41.25 13.125 41.25H31.875C34.3614 41.25 36.746 40.2623 38.5041 38.5041C40.2623 36.746 41.25 34.3614 41.25 31.875V13.125C41.25 10.6386 40.2623 8.25403 38.5041 6.49587C36.746 4.73772 34.3614 3.75 31.875 3.75ZM27.1687 31.4625H24.2438C24.1271 31.4787 24.0087 31.4485 23.9141 31.3784C23.8194 31.3083 23.756 31.2038 23.7375 31.0875C23.3813 30.0375 23.0063 28.9875 22.65 27.9188C22.6388 27.8517 22.6142 27.7877 22.5777 27.7304C22.5412 27.6731 22.4935 27.6237 22.4375 27.5852C22.3815 27.5467 22.3184 27.5199 22.2518 27.5063C22.1852 27.4928 22.1166 27.4927 22.05 27.5063H17.0625C16.9932 27.4899 16.9213 27.4884 16.8514 27.5017C16.7815 27.515 16.7152 27.543 16.6568 27.5836C16.5984 27.6243 16.5492 27.6769 16.5125 27.7379C16.4758 27.7988 16.4524 27.8669 16.4438 27.9375C16.125 28.9875 15.7687 30 15.45 31.05C15.4411 31.1162 15.4186 31.18 15.3841 31.2372C15.3495 31.2944 15.3035 31.3438 15.249 31.3825C15.1945 31.4212 15.1326 31.4483 15.0672 31.462C15.0018 31.4758 14.9342 31.476 14.8687 31.4625H12.3C11.85 31.4625 11.8125 31.4625 11.9625 30.9938L16.0125 19.3125C16.3875 18.2438 16.7625 17.175 17.1 16.1063C17.1927 15.7893 17.2432 15.4614 17.25 15.1312C17.25 14.7375 17.4 14.6438 17.7563 14.6625H21.3375C21.6 14.6625 21.7313 14.6625 21.825 15.0188L26.4375 28.0125C26.7938 29.025 27.15 30.0188 27.4875 31.0125C27.6375 31.425 27.6187 31.4625 27.1687 31.4625ZM32.9062 31.1438C32.9062 31.4625 32.775 31.5562 32.475 31.5562H29.775C29.4 31.5562 29.3062 31.4062 29.3062 31.0687V19.2937C29.3062 18.9187 29.4187 18.7688 29.8125 18.7875H32.4562C32.7562 18.7875 32.9062 18.7875 32.9062 19.2C32.8937 23.175 32.8937 27.1562 32.9062 31.1438ZM31.0312 17.4563C30.7626 17.4733 30.4934 17.4323 30.242 17.3361C29.9906 17.2398 29.7628 17.0905 29.5743 16.8984C29.3857 16.7063 29.2407 16.4758 29.1492 16.2226C29.0576 15.9695 29.0217 15.6995 29.0437 15.4312C29.0461 15.1646 29.1017 14.901 29.2071 14.6561C29.3125 14.4111 29.4658 14.1896 29.6578 14.0046C29.8498 13.8195 30.0768 13.6746 30.3256 13.5783C30.5743 13.482 30.8397 13.4363 31.1063 13.4438C31.3656 13.4429 31.6224 13.4959 31.8602 13.5994C32.098 13.7028 32.3118 13.8545 32.4881 14.0449C32.6643 14.2352 32.7991 14.46 32.884 14.7051C32.9689 14.9502 33.002 15.2102 32.9813 15.4688C32.9966 15.7243 32.9595 15.9802 32.8722 16.2209C32.7848 16.4615 32.6492 16.6817 32.4735 16.8679C32.2978 17.0541 32.0859 17.2024 31.8508 17.3036C31.6156 17.4047 31.3622 17.4567 31.1063 17.4563H31.0312Z" fill="#898989"/>
<path d="M21.525 24.225H17.55C18.225 22.05 18.8625 19.9125 19.425 17.775C20.175 19.9125 20.85 22.05 21.525 24.225Z" fill="#898989"/>
</svg>
