<svg width="36" height="35" viewBox="0 0 36 35" fill="none" xmlns="http://www.w3.org/2000/svg">
<path d="M16.4687 26.7604L11.2917 21.5833L13.4063 19.4687L16.4687 22.5312L22.5937 16.4062L24.7083 18.5208L16.4687 26.7604ZM7.79167 32.0833C6.98958 32.0833 6.30319 31.798 5.7325 31.2273C5.16181 30.6566 4.87597 29.9697 4.875 29.1667V8.74999C4.875 7.94791 5.16083 7.26152 5.7325 6.69082C6.30417 6.12013 6.99056 5.8343 7.79167 5.83332H9.25V2.91666H12.1667V5.83332H23.8333V2.91666H26.75V5.83332H28.2083C29.0104 5.83332 29.6973 6.11916 30.269 6.69082C30.8406 7.26249 31.126 7.94888 31.125 8.74999V29.1667C31.125 29.9687 30.8397 30.6556 30.269 31.2273C29.6983 31.7989 29.0114 32.0843 28.2083 32.0833H7.79167ZM7.79167 29.1667H28.2083V14.5833H7.79167V29.1667Z" fill="white"/>
</svg>
