<svg width="28" height="28" viewBox="0 0 28 28" fill="none" xmlns="http://www.w3.org/2000/svg">
<path d="M2.33325 25.6667V4.66668C2.33325 4.02501 2.56192 3.4759 3.01925 3.01934C3.47659 2.56279 4.0257 2.33412 4.66659 2.33334H23.3333C23.9749 2.33334 24.5244 2.56201 24.9818 3.01934C25.4391 3.47668 25.6674 4.02579 25.6666 4.66668V18.6667C25.6666 19.3083 25.4383 19.8578 24.9818 20.3152C24.5252 20.7725 23.9757 21.0008 23.3333 21H6.99992L2.33325 25.6667ZM13.9999 17.5C14.3305 17.5 14.6078 17.388 14.8318 17.164C15.0558 16.94 15.1674 16.6631 15.1666 16.3333C15.1658 16.0036 15.0538 15.7267 14.8306 15.5027C14.6074 15.2787 14.3305 15.1667 13.9999 15.1667C13.6694 15.1667 13.3925 15.2787 13.1693 15.5027C12.946 15.7267 12.834 16.0036 12.8333 16.3333C12.8325 16.6631 12.9445 16.9404 13.1693 17.1652C13.394 17.39 13.6709 17.5016 13.9999 17.5ZM12.8333 12.8333H15.1666V5.83334H12.8333V12.8333Z" fill="#B0B0B0"/>
</svg>
