<svg width="29" height="29" viewBox="0 0 29 29" fill="none" xmlns="http://www.w3.org/2000/svg">
<path d="M24.1667 21.75H21.75V11.1771L14.5 15.7083L7.24999 11.1771V21.75H4.83332V7.24999H6.28332L14.5 12.3854L22.7167 7.24999H24.1667M24.1667 4.83333H4.83332C3.49207 4.83333 2.41666 5.90874 2.41666 7.24999V21.75C2.41666 22.3909 2.67127 23.0056 3.12448 23.4588C3.57769 23.912 4.19238 24.1667 4.83332 24.1667H24.1667C24.8076 24.1667 25.4223 23.912 25.8755 23.4588C26.3287 23.0056 26.5833 22.3909 26.5833 21.75V7.24999C26.5833 6.60905 26.3287 5.99437 25.8755 5.54115C25.4223 5.08794 24.8076 4.83333 24.1667 4.83333Z" fill="black"/>
</svg>
