<svg width="45" height="45" viewBox="0 0 45 45" fill="none" xmlns="http://www.w3.org/2000/svg">
<path fill-rule="evenodd" clip-rule="evenodd" d="M33.6375 4.56375L33.9937 4.78312L37.7063 7.25812C38.1758 7.57148 38.5686 7.98681 38.8553 8.47315C39.142 8.95948 39.3151 9.50427 39.3619 10.0669L39.375 10.3781V33.8887C39.3749 34.7832 39.0552 35.6481 38.4734 36.3275C37.8917 37.0069 37.0863 37.456 36.2025 37.5937L35.9119 37.6275L14.295 39.2906C13.7196 39.3349 13.1418 39.2457 12.6065 39.0301C12.0712 38.8145 11.5928 38.4782 11.2088 38.0475L11.0081 37.8019L6.75 32.1244C6.10287 31.2613 5.71756 30.2303 5.64 29.1544L5.625 28.7494V9.23625C5.62506 8.34181 5.94482 7.47686 6.52657 6.79747C7.10831 6.11807 7.91374 5.66899 8.7975 5.53125L9.08813 5.4975L30.4406 3.855C31.5523 3.76936 32.6644 4.01606 33.6356 4.56375H33.6375ZM35.625 13.275L15 14.8612V35.475L35.625 33.8887V13.275ZM30 15.9375C30.4973 15.9375 30.9742 16.135 31.3258 16.4867C31.6775 16.8383 31.875 17.3152 31.875 17.8125V30.9375C31.875 31.4348 31.6775 31.9117 31.3258 32.2633C30.9742 32.615 30.4973 32.8125 30 32.8125H29.0625C28.7422 32.8126 28.4271 32.7306 28.1475 32.5744C27.8678 32.4181 27.6329 32.1928 27.465 31.92L22.5 23.85V31.875C22.5 32.3723 22.3025 32.8492 21.9508 33.2008C21.5992 33.5525 21.1223 33.75 20.625 33.75C20.1277 33.75 19.6508 33.5525 19.2992 33.2008C18.9475 32.8492 18.75 32.3723 18.75 31.875V18.75C18.75 18.2527 18.9475 17.7758 19.2992 17.4242C19.6508 17.0725 20.1277 16.875 20.625 16.875H21.5625C21.8828 16.8749 22.1979 16.9569 22.4775 17.1131C22.7572 17.2694 22.9921 17.4947 23.16 17.7675L28.125 25.8356V17.8125C28.125 17.3152 28.3225 16.8383 28.6742 16.4867C29.0258 16.135 29.5027 15.9375 30 15.9375ZM30.7275 7.59375L11.7094 9.05624L13.8412 11.1881L34.4625 9.60375L31.9125 7.90312C31.5633 7.67026 31.146 7.56132 30.7275 7.59375Z" fill="#898989"/>
</svg>
