<svg width="45" height="45" viewBox="0 0 45 45" fill="none" xmlns="http://www.w3.org/2000/svg">
<path d="M25.7625 7.9313C24.6369 6.58971 23.5654 5.2036 22.5506 3.7763C22.5449 3.76818 22.5374 3.76154 22.5285 3.75697C22.5197 3.75239 22.5099 3.75 22.5 3.75C22.4901 3.75 22.4803 3.75239 22.4715 3.75697C22.4627 3.76154 22.4551 3.76818 22.4494 3.7763C21.4347 5.20424 20.3632 6.59097 19.2375 7.93317C5.71502 25.1588 21.3713 36.78 21.3713 36.78L21.4969 36.8682C21.6169 38.6663 21.9113 41.25 21.9113 41.25H23.0888C23.0888 41.25 23.3831 38.6776 23.5013 36.8813L23.6306 36.78C23.6306 36.78 39.285 25.1588 25.7644 7.93317M22.5 36.5288C22.5 36.5288 21.7988 35.9288 21.6094 35.6288L21.6075 35.5988L22.4569 16.845C22.459 16.8349 22.4645 16.8258 22.4725 16.8193C22.4806 16.8128 22.4906 16.8092 22.501 16.8092C22.5113 16.8092 22.5213 16.8128 22.5294 16.8193C22.5374 16.8258 22.5429 16.8349 22.545 16.845L23.3925 35.5988V35.6307C23.2031 35.9307 22.5 36.5288 22.5 36.5288Z" fill="#818181"/>
</svg>
