<svg width="47" height="46" viewBox="0 0 47 46" fill="none" xmlns="http://www.w3.org/2000/svg">
<g clip-path="url(#clip0_372_242)">
<path d="M8.2358 0.574951H37.9439C42.4483 0.574951 46.0898 4.2165 46.0898 8.7209V37.279C46.0898 41.7834 42.4483 45.425 37.9439 45.425H8.2358C3.73139 45.425 0.0898438 41.7834 0.0898438 37.279V8.7209C0.0898438 4.2165 3.73139 0.574951 8.2358 0.574951Z" fill="#001E36"/>
<path d="M16.5734 11.979C15.9984 11.979 15.4234 11.979 14.8293 11.9984C14.2349 12.0175 13.679 12.0175 13.1615 12.0369C12.644 12.0559 12.1649 12.0559 11.7049 12.075C11.264 12.094 10.9574 12.094 10.6315 12.094C10.4974 12.094 10.4399 12.1706 10.4399 12.305V32.0275C10.4399 32.2 10.5165 32.2769 10.6699 32.2769H14.3884C14.5224 32.2575 14.6184 32.1425 14.599 32.0084V25.8559C14.963 25.8559 15.2315 25.8559 15.4234 25.875C15.6149 25.894 15.9215 25.894 16.3815 25.894C17.9534 25.894 19.3909 25.7215 20.694 25.2425C21.9399 24.7825 23.0134 23.9775 23.7799 22.904C24.5465 21.8309 24.9299 20.47 24.9299 18.8215C24.9299 17.959 24.7768 17.135 24.4893 16.33C24.1849 15.5097 23.7077 14.7645 23.0899 14.145C22.3611 13.4368 21.4837 12.8999 20.5215 12.5731C19.448 12.1706 18.1449 11.979 16.5734 11.979ZM17.0011 15.7542C17.6839 15.7672 18.3487 15.8865 18.969 16.1381C19.5249 16.349 19.9849 16.7325 20.3109 17.2306C20.617 17.7459 20.7699 18.3378 20.7518 18.9369C20.7518 19.78 20.5599 20.4319 20.1574 20.9109C19.7355 21.39 19.199 21.7544 18.5859 21.9269C17.8765 22.1569 17.129 22.2715 16.3815 22.2715H15.3655C15.1355 22.2715 14.8868 22.2525 14.6184 22.2334V15.7934C14.7524 15.774 15.0209 15.755 15.4043 15.7744C15.7684 15.755 16.209 15.755 16.7074 15.755C16.8056 15.7524 16.9037 15.7521 17.0011 15.7542ZM33.0759 16.7328C31.7149 16.7328 30.584 16.9434 29.6834 17.4034C28.8593 17.7869 28.1499 18.4 27.6709 19.1665C27.2493 19.8759 27.019 20.6615 27.019 21.4859C27.0026 22.164 27.154 22.8356 27.4599 23.4409C27.8185 24.0854 28.3162 24.642 28.9168 25.07C29.76 25.6465 30.675 26.1105 31.6384 26.45C32.5774 26.814 33.2099 27.1015 33.5168 27.3506C33.8234 27.6 33.9768 27.849 33.9768 28.1175C33.9768 28.4625 33.7659 28.7884 33.4593 28.9225C33.1143 29.095 32.5968 29.1909 31.8684 29.1909C31.1018 29.1909 30.3349 29.095 29.6065 28.9034C28.7701 28.7164 27.9682 28.3996 27.2299 27.9644C27.1724 27.9259 27.1149 27.9069 27.0574 27.9453C26.9999 27.9834 26.9809 28.06 26.9809 28.1175V31.4525C26.9618 31.6059 27.0574 31.74 27.1918 31.8165C27.8134 32.1069 28.4708 32.3132 29.1468 32.43C30.0093 32.6025 30.8715 32.679 31.753 32.679C33.133 32.679 34.2834 32.4684 35.2224 32.0659C36.0849 31.7209 36.8324 31.1269 37.369 30.36C37.8713 29.6059 38.132 28.7168 38.1165 27.8109C38.1352 27.1266 37.9838 26.4483 37.6759 25.8369C37.3115 25.185 36.794 24.6484 36.1615 24.2459C35.2361 23.6649 34.2454 23.1952 33.2099 22.8465C32.7475 22.6552 32.2934 22.4442 31.849 22.214C31.5999 22.08 31.3699 21.9075 31.1974 21.6965C31.0824 21.5431 31.0059 21.3709 31.0059 21.1984C31.0059 21.0259 31.0634 20.8344 31.159 20.6809C31.2934 20.4894 31.504 20.355 31.753 20.2975C32.1174 20.2019 32.5199 20.144 32.903 20.1631C33.6315 20.1631 34.3405 20.259 35.0499 20.4125C35.7018 20.5465 36.3149 20.7575 36.8899 21.0644C36.9665 21.1025 37.0624 21.1025 37.2349 21.0644C37.265 21.0422 37.2893 21.0133 37.306 20.98C37.3227 20.9466 37.3312 20.9098 37.3309 20.8725V17.7484C37.3309 17.6715 37.3115 17.595 37.2924 17.5184C37.254 17.4419 37.1774 17.365 37.1009 17.3459C36.5723 17.1297 36.0184 16.9815 35.4524 16.905C34.6654 16.7903 33.8712 16.7331 33.0759 16.7328Z" fill="#31A8FF"/>
</g>
<defs>
<clipPath id="clip0_372_242">
<rect width="46" height="46" fill="white" transform="translate(0.0898438)"/>
</clipPath>
</defs>
</svg>
