<svg width="51" height="46" viewBox="0 0 51 46" fill="none" xmlns="http://www.w3.org/2000/svg">
<path d="M30.2387 23.0054C30.2387 24.2812 29.7384 25.5048 28.8478 26.4072C27.9572 27.3096 26.7492 27.8168 25.4894 27.8174C24.2292 27.8174 23.0206 27.3104 22.1296 26.408C21.2385 25.5055 20.7379 24.2816 20.7379 23.0054C20.7379 21.7295 21.2382 20.5059 22.1288 19.6036C23.0194 18.7012 24.2274 18.194 25.4873 18.1934C26.7474 18.1934 27.956 18.7004 28.8471 19.6028C29.7381 20.5052 30.2387 21.7292 30.2387 23.0054ZM35.8658 0C33.0055 0 29.2634 2.06597 25.4787 5.64267C21.6962 2.08533 17.952 0.0430409 15.0939 0.0430409C14.2226 0.0430409 13.43 0.243181 12.7436 0.64131C9.82175 2.34788 9.16725 7.66559 10.676 14.3391C4.2075 16.362 0 19.5965 0 23.0054C0 26.4271 4.22875 29.6703 10.7164 31.6781C9.22038 38.3774 9.88763 43.7038 12.8159 45.4082C13.4959 45.8106 14.2821 46 15.1576 46C18.0157 46 21.76 43.934 25.5446 40.353C29.3271 43.9125 33.0714 45.9548 35.9295 45.9548C36.8008 45.9548 37.5934 45.7611 38.2797 45.363C41.1995 43.6586 41.8561 38.3409 40.3474 31.6652C46.7925 29.6595 51 26.4185 51 23.0054C51 19.5836 46.7713 16.3405 40.2836 14.3283C41.7796 7.63546 41.1124 2.30484 38.1841 0.598269C37.5084 0.202292 36.7243 0.00215205 35.8658 0ZM35.8551 2.34573V2.35864C36.3332 2.35864 36.7179 2.45333 37.0409 2.63195C38.4561 3.45403 39.0702 6.58096 38.5921 10.6031C38.4774 11.5931 38.2904 12.6368 38.0609 13.7021C36.0209 13.1942 33.7981 12.8047 31.4585 12.5529C30.056 10.6053 28.6004 8.8363 27.1341 7.28683C30.5171 4.1018 33.694 2.35434 35.8573 2.34788L35.8551 2.34573ZM15.0939 2.38877C17.2444 2.38877 20.4361 4.12763 23.8276 7.29544C22.3699 8.84491 20.9164 10.6031 19.5351 12.5507C17.1827 12.8025 14.9579 13.192 12.92 13.7085C12.682 12.654 12.5056 11.634 12.3803 10.6526C11.8915 6.63261 12.495 3.50784 13.8975 2.67499C14.3012 2.48131 14.7475 2.39953 15.0939 2.38877ZM25.4681 8.95251C26.435 9.95967 27.4019 11.0873 28.3581 12.3183C27.4231 12.2753 26.4669 12.2451 25.5 12.2451C24.5225 12.2451 23.5556 12.2667 22.61 12.3183C23.545 11.0873 24.5119 9.96182 25.4681 8.95251ZM25.5 14.6038C27.0725 14.6038 28.6386 14.677 30.1792 14.8039C31.042 16.0564 31.8835 17.3928 32.6931 18.8067C33.4836 20.184 34.2019 21.5829 34.8564 22.9946C34.2019 24.4042 33.4836 25.8138 32.7038 27.1911C31.8963 28.6115 31.0611 29.9629 30.1963 31.2154C28.6493 31.351 27.081 31.4263 25.5 31.4263C23.9275 31.4263 22.3614 31.351 20.8208 31.2262C19.958 29.9737 19.1165 28.6351 18.3069 27.2234C17.5164 25.8461 16.7981 24.4472 16.1436 23.0355C16.7875 21.6216 17.5164 20.2099 18.2962 18.8304C19.1037 17.4101 19.9389 16.0629 20.8037 14.8104C22.3507 14.6727 23.919 14.5995 25.5 14.5995V14.6038ZM17.7756 15.1504C17.2656 15.9617 16.7556 16.7924 16.2796 17.6468C15.8015 18.4861 15.3553 19.3297 14.9303 20.1733C14.3671 18.7615 13.889 17.3541 13.4937 15.9833C14.8537 15.6604 16.2881 15.3721 17.7756 15.1504ZM33.2031 15.1504C34.68 15.3721 36.1038 15.6454 37.4659 15.9833C37.0834 17.3433 36.6053 18.7422 36.0634 20.1432C35.6384 19.3039 35.1921 18.4581 34.7034 17.6167C34.2252 16.7731 33.7153 15.951 33.2053 15.1504H33.2031ZM39.712 16.603C40.7405 16.9258 41.718 17.2852 42.6339 17.6748C46.3144 19.2673 48.6944 21.3505 48.6944 23.0032C48.6838 24.656 46.3038 26.7478 42.6233 28.3295C41.7308 28.7169 40.7532 29.0655 39.7439 29.3905C39.1489 27.3288 38.3711 25.1811 37.4064 22.9774C38.3626 20.7888 39.1276 18.6518 39.712 16.5987V16.603ZM11.2476 16.6116C11.8384 18.6776 12.6183 20.8232 13.5851 23.0247C12.6289 25.2134 11.8596 27.3504 11.2774 29.4034C10.2489 29.0806 9.27138 28.7191 8.36613 28.3274C4.68563 26.7413 2.30563 24.656 2.30563 23.0032C2.30563 21.3505 4.68563 19.2544 8.36613 17.6748C9.25863 17.2874 10.2361 16.9388 11.2476 16.6116ZM36.0634 25.8224C36.6265 27.2363 37.1046 28.6459 37.4999 30.0146C36.1399 30.3525 34.7034 30.6387 33.2159 30.8539C33.7259 30.0469 34.2359 29.214 34.714 28.3618C35.1921 27.5225 35.6363 26.666 36.0634 25.8224ZM14.9303 25.8654C15.3553 26.7091 15.8015 27.5505 16.2902 28.3941C16.779 29.2334 17.2784 30.0555 17.7884 30.8539C16.3115 30.6344 14.8877 30.3589 13.5256 30.0232C13.9081 28.6674 14.3884 27.2643 14.9281 25.8633L14.9303 25.8654ZM38.08 32.2936C38.318 33.3546 38.505 34.3768 38.6197 35.356C39.1085 39.376 38.505 42.5008 37.1025 43.3358C36.7901 43.5295 36.3842 43.6112 35.9061 43.6112C33.7556 43.6112 30.5639 41.8745 27.1724 38.7046C28.6301 37.1551 30.0836 35.399 31.4649 33.4536C33.8173 33.1996 36.0421 32.8101 38.08 32.2936ZM12.9413 32.3151C14.9813 32.8187 17.204 33.2082 19.5436 33.46C20.9461 35.4076 22.4018 37.1766 23.868 38.7239C20.4786 41.9154 17.2975 43.6629 15.1343 43.6629C14.6668 43.6521 14.2715 43.5553 13.9591 43.3788C12.5439 42.561 11.9298 39.432 12.4079 35.4098C12.5226 34.4198 12.7118 33.3782 12.9413 32.3151ZM22.6312 33.6924C23.5662 33.7355 24.5225 33.7656 25.4894 33.7656C26.4669 33.7656 27.4337 33.7441 28.3794 33.6924C27.4444 34.9234 26.4775 36.0489 25.5213 37.0604C24.5544 36.0489 23.5875 34.9234 22.6312 33.6924Z" fill="url(#paint0_linear_87_1775)"/>
<defs>
<linearGradient id="paint0_linear_87_1775" x1="25.5" y1="0" x2="25.5" y2="46" gradientUnits="userSpaceOnUse">
<stop stop-color="#00D8FF"/>
<stop offset="1" stop-color="#00D8FF"/>
</linearGradient>
</defs>
</svg>
