<svg width="45" height="45" viewBox="0 0 45 45" fill="none" xmlns="http://www.w3.org/2000/svg">
<path d="M22.5 18.9562C24.4312 18.9562 26.0062 20.5312 26.0062 22.5C26.0062 24.375 24.4312 25.9687 22.5 25.9687C20.5687 25.9687 18.9937 24.375 18.9937 22.5C18.9937 20.5312 20.5687 18.9562 22.5 18.9562ZM13.8187 37.5C15 38.2125 17.5875 37.125 20.5687 34.3125C19.5938 33.2062 18.6375 32.0062 17.7375 30.75C16.2267 30.6043 14.7246 30.379 13.2375 30.075C12.2812 34.0875 12.6375 36.8437 13.8187 37.5ZM15.15 26.7375L14.6062 25.7812C14.4 26.325 14.1937 26.8687 14.0625 27.3937C14.5687 27.5062 15.1312 27.6 15.7125 27.6937L15.15 26.7375ZM27.4125 25.3125L28.9312 22.5L27.4125 19.6875C26.85 18.6937 26.25 17.8125 25.7062 16.9312C24.6937 16.875 23.625 16.875 22.5 16.875C21.375 16.875 20.3062 16.875 19.2937 16.9312C18.75 17.8125 18.15 18.6937 17.5875 19.6875L16.0687 22.5L17.5875 25.3125C18.15 26.3062 18.75 27.1875 19.2937 28.0687C20.3062 28.125 21.375 28.125 22.5 28.125C23.625 28.125 24.6937 28.125 25.7062 28.0687C26.25 27.1875 26.85 26.3062 27.4125 25.3125ZM22.5 12.7125C22.1437 13.125 21.7687 13.5562 21.3937 14.0625H23.6062C23.2312 13.5562 22.8562 13.125 22.5 12.7125ZM22.5 32.2875C22.8562 31.875 23.2312 31.4437 23.6062 30.9375H21.3937C21.7687 31.4437 22.1437 31.875 22.5 32.2875ZM31.1625 7.49995C30 6.78745 27.4125 7.87495 24.4312 10.6875C25.4062 11.7937 26.3625 12.9937 27.2625 14.25C28.8 14.4 30.3187 14.625 31.7625 14.925C32.7188 10.9125 32.3625 8.1562 31.1625 7.49995ZM29.85 18.2625L30.3937 19.2187C30.6 18.675 30.8062 18.1312 30.9375 17.6062C30.4312 17.4937 29.8687 17.4 29.2875 17.3062L29.85 18.2625ZM32.5688 5.0437C35.325 6.6187 35.625 10.7625 34.4625 15.6C39.225 17.0062 42.6562 19.3312 42.6562 22.5C42.6562 25.6687 39.225 27.9937 34.4625 29.4C35.625 34.2375 35.325 38.3812 32.5688 39.9562C29.8312 41.5312 26.1 39.7312 22.5 36.3C18.9 39.7312 15.1687 41.5312 12.4125 39.9562C9.675 38.3812 9.375 34.2375 10.5375 29.4C5.775 27.9937 2.34375 25.6687 2.34375 22.5C2.34375 19.3312 5.775 17.0062 10.5375 15.6C9.375 10.7625 9.675 6.6187 12.4125 5.0437C15.1687 3.4687 18.9 5.2687 22.5 8.69995C26.1 5.2687 29.8312 3.4687 32.5688 5.0437ZM32.025 22.5C32.6625 23.9062 33.225 25.3125 33.6937 26.7375C37.6312 25.5562 39.8437 23.8687 39.8437 22.5C39.8437 21.1312 37.6312 19.4437 33.6937 18.2625C33.225 19.6875 32.6625 21.0937 32.025 22.5ZM12.975 22.5C12.3375 21.0937 11.775 19.6875 11.3062 18.2625C7.36875 19.4437 5.15625 21.1312 5.15625 22.5C5.15625 23.8687 7.36875 25.5562 11.3062 26.7375C11.775 25.3125 12.3375 23.9062 12.975 22.5ZM29.85 26.7375L29.2875 27.6937C29.8687 27.6 30.4312 27.5062 30.9375 27.3937C30.8062 26.8687 30.6 26.325 30.3937 25.7812L29.85 26.7375ZM24.4312 34.3125C27.4125 37.125 30 38.2125 31.1625 37.5C32.3625 36.8437 32.7188 34.0875 31.7625 30.075C30.3187 30.375 28.8 30.6 27.2625 30.75C26.3625 32.0062 25.4062 33.2062 24.4312 34.3125ZM15.15 18.2625L15.7125 17.3062C15.1312 17.4 14.5687 17.4937 14.0625 17.6062C14.1937 18.1312 14.4 18.675 14.6062 19.2187L15.15 18.2625ZM20.5687 10.6875C17.5875 7.87495 15 6.78745 13.8187 7.49995C12.6375 8.1562 12.2812 10.9125 13.2375 14.925C14.7246 14.6209 16.2267 14.3956 17.7375 14.25C18.6375 12.9937 19.5938 11.7937 20.5687 10.6875Z" fill="#818181"/>
</svg>
