<svg width="49" height="46" viewBox="0 0 49 46" fill="none" xmlns="http://www.w3.org/2000/svg">
<path d="M33.9034 32.126C35.7024 31.941 37.0671 30.3995 37.0051 28.5496C36.943 26.6997 35.3922 25.2198 33.5311 25.2198H33.4071C31.484 25.2815 29.9952 26.8847 30.0572 28.7962C30.1192 29.7212 30.4914 30.5228 31.0498 31.0777C28.9406 35.2091 25.7148 38.2306 20.8761 40.7587C17.5882 42.4853 14.1763 43.1019 10.7644 42.6702C7.97288 42.3003 5.80167 41.067 4.43691 39.0322C2.4518 36.0107 2.26569 32.7426 3.94063 29.4745C5.11929 27.1314 6.98033 25.4048 8.15898 24.5416C7.91084 23.7399 7.53864 22.3834 7.35253 21.3968C-1.64249 27.8713 -0.711969 36.6273 2.01755 40.7587C4.0647 43.8418 8.22102 45.7533 12.8116 45.7533C14.0523 45.7533 15.293 45.63 16.5337 45.3217C24.4741 43.7802 30.4914 39.0938 33.9034 32.126ZM44.8214 24.4799C40.1068 18.992 33.1589 15.9705 25.2185 15.9705H24.226C23.6676 14.8606 22.489 14.1206 21.1863 14.1206H21.0622C19.1391 14.1823 17.6503 15.7855 17.7123 17.6971C17.7743 19.5469 19.3252 21.0268 21.1863 21.0268H21.3103C22.6751 20.9651 23.8537 20.1019 24.35 18.9303H25.4666C30.1813 18.9303 34.6478 20.2869 38.68 22.9383C41.7817 24.9732 44.015 27.6247 45.2557 30.8311C46.3103 33.4209 46.2482 35.9491 45.1316 38.1072C43.3946 41.3753 40.479 43.1635 36.6329 43.1635C34.1515 43.1635 31.7942 42.4236 30.5535 41.8686C29.8711 42.4853 28.6304 43.4718 27.7619 44.0885C30.4294 45.3217 33.1589 46 35.7644 46C41.7197 46 46.1242 42.7319 47.7991 39.4638C49.5981 35.8874 49.474 29.7212 44.8214 24.4799ZM13.3079 33.1743C13.3699 35.0241 14.9208 36.504 16.7818 36.504H16.9059C18.8289 36.4424 20.3178 34.8391 20.2557 32.9276C20.1937 31.0777 18.6428 29.5979 16.7818 29.5979H16.6577C16.5337 29.5979 16.3476 29.5979 16.2235 29.6595C13.6801 25.4665 12.6255 20.9035 12.9977 15.9705C13.2458 12.2708 14.4865 9.06434 16.6577 6.41287C18.4567 4.13137 21.9307 3.02145 24.288 2.95979C30.8637 2.83646 33.6552 10.9759 33.8413 14.244C34.6478 14.429 36.0125 14.8606 36.943 15.1689C36.1986 5.17962 29.9952 0 24.0398 0C18.4567 0 13.3079 4.00804 11.2607 9.92761C8.40712 17.8204 10.2682 25.4048 13.7421 31.3861C13.4319 31.8177 13.2458 32.496 13.3079 33.1743Z" fill="#AF7DFF"/>
</svg>
