<svg width="63" height="46" viewBox="0 0 63 46" fill="none" xmlns="http://www.w3.org/2000/svg">
<path d="M53.8608 26.4436C51.7004 26.4548 49.8227 26.9702 48.2504 27.732C47.6735 26.6005 47.0966 25.5921 46.9948 24.8527C46.8817 23.99 46.746 23.4634 46.8817 22.4327C47.0175 21.402 47.6283 19.9343 47.617 19.8222C47.6057 19.7102 47.4812 19.1836 46.237 19.1724C44.9927 19.1612 43.9181 19.4077 43.7937 19.7326C43.6693 20.0575 43.4317 20.797 43.2734 21.5588C43.0585 22.6792 40.7849 26.6789 39.4841 28.774C39.0656 27.9561 38.7036 27.2391 38.6244 26.6677C38.5113 25.805 38.3756 25.2784 38.5113 24.2477C38.647 23.2169 39.2579 21.7493 39.2465 21.6372C39.2352 21.5252 39.1108 20.9986 37.8666 20.9874C36.6223 20.9762 35.5477 21.2227 35.4233 21.5476C35.2989 21.8725 35.1631 22.6344 34.903 23.3738C34.6428 24.1132 31.6227 30.7906 30.8309 32.516C30.4237 33.4011 30.073 34.1069 29.8242 34.5887C29.8242 34.5887 29.8128 34.6223 29.7789 34.6783C29.564 35.0928 29.4396 35.3169 29.4396 35.3169C29.4396 35.3169 29.4396 35.3169 29.4396 35.3281C29.2699 35.6306 29.0889 35.9107 28.9984 35.9107C28.9306 35.9107 28.8061 35.104 29.021 34.0061C29.4735 31.6869 30.5481 28.0793 30.5368 27.9561C30.5368 27.8889 30.7404 27.2615 29.8355 26.9366C28.9532 26.6117 28.6365 27.1494 28.5573 27.1494C28.4781 27.1494 28.4215 27.3399 28.4215 27.3399C28.4215 27.3399 29.4056 23.2842 26.5439 23.2842C24.7567 23.2842 22.2908 25.2224 21.0691 26.9702C20.3 27.3847 18.6598 28.2698 16.9066 29.2221C16.2392 29.5918 15.5492 29.9616 14.9044 30.3089C14.8592 30.2641 14.8139 30.208 14.7687 30.1632C11.3074 26.4996 4.90517 23.9116 5.17664 18.9932C5.27845 17.2006 5.90057 12.495 17.4721 6.78117C26.9963 2.13165 34.5749 3.42007 35.8871 6.27701C37.7647 10.3551 31.8263 17.9288 21.9854 19.0268C18.23 19.4413 16.2618 18.0072 15.7641 17.4695C15.2438 16.9093 15.1646 16.8757 14.9723 16.9877C14.6556 17.1558 14.8592 17.6599 14.9723 17.9512C15.2664 18.7131 16.4767 20.0575 18.5241 20.7185C20.3339 21.3011 24.734 21.626 30.0617 19.587C36.0228 17.3014 40.6831 10.9489 39.3144 5.62719C37.9457 0.227028 28.8966 -1.55435 20.3339 1.45943C15.2438 3.25202 9.72382 6.07534 5.75352 9.75014C1.03668 14.1196 0.290126 17.9176 0.595533 19.5085C1.69274 25.1552 9.55415 28.83 12.6987 31.5525C12.5404 31.6421 12.3933 31.7205 12.2689 31.7877C10.6966 32.5608 4.70157 35.6642 3.20846 38.9469C1.51176 42.6665 3.47994 45.333 4.78075 45.6915C8.81891 46.8007 12.9702 44.8064 15.1985 41.5125C17.4269 38.2187 17.1554 33.9389 16.1261 31.9782C16.1148 31.9558 16.1034 31.9334 16.0808 31.911C16.488 31.6757 16.9066 31.4292 17.3138 31.194C18.1169 30.7234 18.9087 30.2865 19.5873 29.9279C19.2028 30.9699 18.92 32.2135 18.7842 34.0061C18.6146 36.1124 19.4855 38.8461 20.628 39.9216C21.137 40.3922 21.7365 40.4034 22.1211 40.4034C23.4558 40.4034 24.0553 39.3054 24.7227 38.0058C25.5371 36.4149 26.2724 34.5663 26.2724 34.5663C26.2724 34.5663 25.3562 39.5631 27.8447 39.5631C28.7496 39.5631 29.6658 38.3979 30.073 37.8041V37.8153C30.073 37.8153 30.0956 37.7817 30.1409 37.7033C30.2314 37.5576 30.2879 37.468 30.2879 37.468V37.4456C30.6499 36.8182 31.4643 35.3953 32.6746 33.0314C34.2356 29.984 35.74 26.1747 35.74 26.1747C35.74 26.1747 35.8757 27.1046 36.3395 28.6507C36.611 29.5582 37.1766 30.5553 37.629 31.5189C37.267 32.023 37.0408 32.3031 37.0408 32.3031C37.0408 32.3031 37.0408 32.3031 37.0521 32.3143C36.758 32.6952 36.4413 33.1098 36.0907 33.5131C34.8577 34.9696 33.3872 36.6389 33.1836 37.1207C32.9461 37.6921 33.0027 38.1066 33.4551 38.4427C33.7831 38.6892 34.3713 38.7228 34.9708 38.6892C36.0793 38.6108 36.8598 38.3419 37.2444 38.1738C37.8439 37.961 38.5452 37.6361 39.2013 37.1543C40.4116 36.2692 41.1469 35.0032 41.079 33.3339C41.045 32.4152 40.7396 31.4965 40.3664 30.6338C40.4795 30.4769 40.5813 30.3201 40.6944 30.1632C42.606 27.3959 44.0878 24.3597 44.0878 24.3597C44.0878 24.3597 44.2235 25.2896 44.6873 26.8357C44.9135 27.62 45.3773 28.4715 45.7845 29.3005C43.986 30.7458 42.8775 32.4264 42.4816 33.5243C41.769 35.5634 42.3232 36.4821 43.3752 36.695C43.8503 36.7958 44.529 36.5717 45.0267 36.3588C45.6601 36.1572 46.4066 35.8099 47.1193 35.2945C48.3296 34.4094 49.4947 33.177 49.4268 31.5077C49.3929 30.7458 49.1892 29.9952 48.9065 29.2669C50.4335 28.6395 52.4017 28.2922 54.9128 28.5835C60.297 29.2109 61.3603 32.5384 61.1567 33.9389C60.9531 35.3393 59.8219 36.1012 59.4487 36.3364C59.0754 36.5717 58.951 36.6501 58.9849 36.8182C59.0302 37.0647 59.2111 37.0535 59.5279 37.0087C59.969 36.9302 62.3557 35.8771 62.4575 33.3002C62.6272 30.0064 59.46 26.41 53.8608 26.4436ZM12.3254 40.3137C10.5382 42.2408 8.04974 42.969 6.97515 42.3528C5.82139 41.6918 6.27385 38.8461 8.46826 36.807C9.803 35.5634 11.5223 34.4094 12.6648 33.7036C12.9249 33.5467 13.3095 33.3227 13.7733 33.0426C13.8525 32.9977 13.8977 32.9753 13.8977 32.9753C13.9882 32.9193 14.0787 32.8633 14.1692 32.8073C14.9723 35.7202 14.2031 38.2859 12.3254 40.3137ZM25.3335 31.5525C24.7114 33.0538 23.4106 36.8966 22.6188 36.6838C21.9401 36.5045 21.5216 33.5915 22.4831 30.7122C22.9695 29.2669 23.9988 27.5416 24.5983 26.8693C25.5711 25.7938 26.6457 25.4353 26.9058 25.8722C27.2338 26.4436 25.7181 30.6114 25.3335 31.5525ZM36.068 36.6389C35.8079 36.7734 35.559 36.863 35.4459 36.7958C35.3667 36.751 35.559 36.5717 35.559 36.5717C35.559 36.5717 36.9051 35.1376 37.4367 34.4878C37.7421 34.1069 38.1041 33.6588 38.4887 33.1546V33.3002C38.4887 35.0144 36.8146 36.1684 36.068 36.6389ZM44.348 34.7679C44.1557 34.6335 44.1896 34.1853 44.8344 32.7849C45.0832 32.2359 45.6714 31.3172 46.6781 30.4321C46.7912 30.7906 46.8704 31.1379 46.8591 31.4628C46.8478 33.6252 45.2868 34.4318 44.348 34.7679Z" fill="#F784BC"/>
</svg>
