<svg width="47" height="46" viewBox="0 0 47 46" fill="none" xmlns="http://www.w3.org/2000/svg">
<g clip-path="url(#clip0_87_1814)">
<path d="M35.7188 0H11.2812C5.32693 0 0.5 4.82693 0.5 10.7812V35.2188C0.5 41.1731 5.32693 46 11.2812 46H35.7188C41.6731 46 46.5 41.1731 46.5 35.2188V10.7812C46.5 4.82693 41.6731 0 35.7188 0Z" fill="#F03C2E"/>
<mask id="mask0_87_1814" style="mask-type:luminance" maskUnits="userSpaceOnUse" x="5" y="5" width="37" height="36">
<path d="M5.53125 5.03125H41.4688V40.9688H5.53125V5.03125Z" fill="white"/>
</mask>
<g mask="url(#mask0_87_1814)">
<path d="M40.7913 21.3996L25.1011 5.70948C24.7776 5.38563 24.3653 5.16507 23.9163 5.07573C23.4674 4.98638 23.002 5.03229 22.5792 5.20762C22.2985 5.32409 22.0435 5.49461 21.8287 5.70948L18.5718 8.96632L22.7046 13.0991C23.666 12.7622 24.7665 12.9924 25.5324 13.7584C25.897 14.1236 26.1515 14.5841 26.2669 15.0871C26.3823 15.5901 26.3538 16.1154 26.1848 16.603L30.1683 20.5865C31.132 20.2541 32.2437 20.4685 33.0129 21.2401C33.3983 21.6252 33.6607 22.116 33.7669 22.6504C33.8732 23.1848 33.8184 23.7387 33.6097 24.2419C33.3299 24.9166 32.7936 25.4526 32.1187 25.7321C31.4438 26.0115 30.6856 26.0115 30.0107 25.7321C29.6765 25.5935 29.3728 25.3907 29.1171 25.1348C28.3085 24.3262 28.1087 23.1358 28.5175 22.1396L24.8025 18.4245V28.2008C25.0722 28.3342 25.3186 28.5101 25.5324 28.7219C26.0488 29.2384 26.339 29.9388 26.339 30.6692C26.339 31.3997 26.0488 32.1001 25.5324 32.6166C25.0159 33.1331 24.3154 33.4232 23.585 33.4232C22.8546 33.4232 22.1541 33.1331 21.6376 32.6166C21.2522 32.2316 20.9897 31.7409 20.8833 31.2066C20.7769 30.6723 20.8314 30.1184 21.04 29.6151C21.1785 29.281 21.3816 28.9774 21.6376 28.7219C21.9038 28.4568 22.1992 28.2558 22.5395 28.121V18.2538C22.2018 18.1158 21.8951 17.9116 21.6376 17.6531C21.251 17.2669 20.9881 16.7742 20.8825 16.238C20.7769 15.7017 20.8333 15.1461 21.0447 14.6421L16.9681 10.5681L6.20931 21.3155C5.88542 21.6392 5.66482 22.0517 5.57543 22.5007C5.48603 22.9498 5.53184 23.4153 5.70708 23.8383C5.82363 24.1192 5.99427 24.3743 6.20931 24.5893L21.9005 40.2781C22.1154 40.493 22.3704 40.6635 22.6511 40.78C23.2183 41.0145 23.8553 41.0145 24.4224 40.78C24.7031 40.6635 24.9581 40.493 25.173 40.2781L40.7913 24.6847C41.0063 24.4698 41.1769 24.2146 41.2933 23.9338C41.4098 23.6529 41.4697 23.3519 41.4698 23.0479C41.4697 22.7438 41.4098 22.4428 41.2934 22.1619C41.177 21.881 41.0063 21.6258 40.7913 21.4109" fill="white"/>
</g>
</g>
<defs>
<clipPath id="clip0_87_1814">
<rect width="46" height="46" fill="white" transform="translate(0.5)"/>
</clipPath>
</defs>
</svg>
