<svg width="47" height="46" viewBox="0 0 47 46" fill="none" xmlns="http://www.w3.org/2000/svg">
<g clip-path="url(#clip0_87_1791)">
<path d="M35.7188 0H11.2812C5.32693 0 0.5 4.82693 0.5 10.7812V35.2188C0.5 41.1731 5.32693 46 11.2812 46H35.7188C41.6731 46 46.5 41.1731 46.5 35.2188V10.7812C46.5 4.82693 41.6731 0 35.7188 0Z" fill="#242938"/>
<path d="M41.4688 32.8716C40.9457 33.0698 40.3681 33.0694 39.8452 32.8706C39.3224 32.6717 38.8905 32.2882 38.6313 31.7925C37.0028 29.3547 35.2045 27.0269 33.4761 24.6491L32.7266 23.65C30.6685 26.4075 28.6103 29.055 26.732 31.8026C26.4874 32.2763 26.0789 32.6449 25.5826 32.8398C25.0863 33.0346 24.5362 33.0424 24.0346 32.8617L31.7575 22.5011L24.574 13.1394C25.0911 12.9527 25.6568 12.9501 26.1755 13.1321C26.6943 13.3141 27.1344 13.6696 27.4215 14.1384C29.0899 16.5764 30.9383 18.9043 32.7765 21.3721C34.625 18.9242 36.4533 16.5863 38.1618 14.1684C38.4077 13.7024 38.8165 13.343 39.3102 13.1588C39.8039 12.9746 40.3482 12.9783 40.8393 13.1694L38.0518 16.8661C36.803 18.5145 35.5741 20.173 34.2753 21.7816C34.1706 21.8753 34.0869 21.99 34.0296 22.1183C33.9723 22.2466 33.9426 22.3855 33.9426 22.526C33.9426 22.6665 33.9723 22.8054 34.0296 22.9336C34.0869 23.0619 34.1706 23.1766 34.2753 23.2703C36.6632 26.4375 39.0309 29.6145 41.4688 32.8716ZM5.53125 22.3712C5.74112 21.3721 5.87086 20.283 6.1607 19.264C7.88911 13.1196 14.9327 10.5617 19.7783 14.3684C22.6158 16.5965 23.3252 19.7537 23.1854 23.3104H7.19983C6.94 29.6647 11.5258 33.5012 17.3904 31.543C18.3418 31.2027 19.1935 30.6308 19.8685 29.879C20.5435 29.1272 21.0207 28.2191 21.257 27.2367C21.5667 26.2377 22.0663 26.0679 23.0154 26.3575C22.859 27.5738 22.429 28.7389 21.7576 29.765C21.0862 30.7912 20.1909 31.6518 19.139 32.2822C17.401 33.2328 15.4069 33.6094 13.442 33.3582C11.477 33.107 9.64181 32.2408 8.19889 30.8835C6.77136 29.2784 5.9082 27.2503 5.74112 25.1087C5.74112 24.7691 5.61121 24.4293 5.54131 24.1096C5.5347 23.5302 5.53135 22.9507 5.53125 22.3712ZM7.21977 21.9415H21.6767C21.5867 17.3358 18.6793 14.0687 14.8029 14.0389C10.4869 13.9789 7.39964 17.1759 7.20971 21.9216L7.21977 21.9415Z" fill="white"/>
</g>
<defs>
<clipPath id="clip0_87_1791">
<rect width="46" height="46" fill="white" transform="translate(0.5)"/>
</clipPath>
</defs>
</svg>
