<svg width="46" height="46" viewBox="0 0 46 46" fill="none" xmlns="http://www.w3.org/2000/svg">
<g clip-path="url(#clip0_379_253)">
<path d="M35.2188 0H10.7812C4.82693 0 0 4.82693 0 10.7812V35.2188C0 41.1731 4.82693 46 10.7812 46H35.2188C41.1731 46 46 41.1731 46 35.2188V10.7812C46 4.82693 41.1731 0 35.2188 0Z" fill="#023430"/>
<path d="M30.7576 19.3328C28.8643 10.9807 24.9183 8.75725 23.9117 7.18552C23.4964 6.49324 23.1287 5.77348 22.8111 5.03125C22.7579 5.77336 22.6602 6.24055 22.0295 6.80333C20.7632 7.9323 15.3852 12.3149 14.9325 21.8047C14.5108 30.6529 21.4372 36.1087 22.3522 36.6728C23.0559 37.019 23.9128 36.6801 24.3309 36.3623C27.6697 34.0709 32.2316 27.9619 30.7612 19.3328" fill="#1FD069"/>
<path d="M23.0979 31.9612C22.9236 34.1512 22.7987 35.4238 22.356 36.6753C22.356 36.6753 22.6465 38.7602 22.8506 40.9687H23.5728C23.7453 39.4135 24.0083 37.8696 24.3606 36.345C23.4256 35.885 23.1338 33.8829 23.0979 31.9612Z" fill="#B8C4C2"/>
<path d="M24.3594 36.3463C23.4146 35.9099 23.1413 33.8656 23.0992 31.9612C23.3327 28.8198 23.4009 25.6682 23.3034 22.5195C23.2538 20.8675 23.3267 7.21772 22.8964 5.21924C23.1906 5.89619 23.5298 6.55268 23.9118 7.1843C24.9184 8.75728 28.8656 10.9807 30.7577 19.3328C32.2317 27.9472 27.6946 34.04 24.3594 36.3463Z" fill="#12BF65"/>
</g>
<defs>
<clipPath id="clip0_379_253">
<rect width="46" height="46" fill="white"/>
</clipPath>
</defs>
</svg>
