<svg width="47" height="46" viewBox="0 0 47 46" fill="none" xmlns="http://www.w3.org/2000/svg">
<g clip-path="url(#clip0_87_1785)">
<path d="M35.7188 0H11.2812C5.32693 0 0.5 4.82693 0.5 10.7812V35.2188C0.5 41.1731 5.32693 46 11.2812 46H35.7188C41.6731 46 46.5 41.1731 46.5 35.2188V10.7812C46.5 4.82693 41.6731 0 35.7188 0Z" fill="#242938"/>
<path d="M22.0406 5.59118C22.9245 5.08536 24.0755 5.08302 24.9585 5.59118C29.4008 8.10141 33.8444 10.6075 38.2859 13.1192C39.1215 13.5898 39.6801 14.5195 39.6717 15.4821V30.5839C39.678 31.5864 39.064 32.5384 38.1826 32.9982C33.7549 35.4946 29.3294 37.9939 24.9025 40.4903C24.0006 41.006 22.8263 40.9663 21.9523 40.4081C20.625 39.6387 19.2953 38.8729 17.9678 38.1042C17.6964 37.9425 17.3906 37.8138 17.1991 37.5508C17.3685 37.3225 17.6713 37.2942 17.9173 37.1944C18.4713 37.0182 18.9803 36.7353 19.4892 36.4609C19.618 36.3729 19.7751 36.4067 19.8985 36.4854C21.0336 37.1362 22.1588 37.8061 23.2977 38.4506C23.5406 38.591 23.7866 38.4046 23.9943 38.2889C28.3392 35.8331 32.6894 33.3869 37.0337 30.9303C37.1947 30.8529 37.2836 30.682 37.2705 30.5057C37.2736 25.5239 37.2713 20.5414 37.2721 15.5593C37.2905 15.3595 37.1748 15.1755 36.9938 15.0936C32.5816 12.6087 28.1713 10.1202 23.7598 7.63476C23.6834 7.58225 23.5929 7.55407 23.5001 7.55391C23.4074 7.55375 23.3168 7.58162 23.2402 7.63387C18.8285 10.1202 14.4193 12.6112 10.0076 15.0957C9.82739 15.1779 9.70646 15.3588 9.72784 15.5593C9.72874 20.5414 9.72784 25.5239 9.72784 30.5065C9.72014 30.5925 9.73902 30.6789 9.78195 30.7539C9.82488 30.8289 9.88979 30.8889 9.96791 30.9259C11.145 31.5934 12.3238 32.2563 13.5018 32.9216C14.1656 33.2787 14.9803 33.4911 15.7116 33.2174C16.3567 32.986 16.809 32.3274 16.7968 31.6424C16.8029 26.6897 16.7937 21.7363 16.8012 16.7841C16.7851 16.5643 16.9937 16.3827 17.2075 16.4035C17.7732 16.3996 18.3396 16.3958 18.9052 16.405C19.1413 16.3996 19.3038 16.6364 19.2746 16.8578C19.2723 21.8419 19.2808 26.8261 19.2709 31.8101C19.2723 33.1385 18.7266 34.5839 17.4979 35.2339C15.9844 36.0178 14.1135 35.8516 12.6181 35.0998C11.3237 34.4537 10.0881 33.6911 8.81665 32.9989C7.93295 32.5416 7.32201 31.5858 7.3283 30.5841V15.4821C7.31895 14.4995 7.90006 13.553 8.76131 13.0892C13.1883 10.591 17.6145 8.09063 22.0406 5.59118Z" fill="#9EFF42"/>
<path d="M25.9028 16.0524C27.8335 15.9281 29.9005 15.9788 31.6379 16.93C32.9832 17.6588 33.7289 19.1887 33.7526 20.6832C33.7151 20.8846 33.5043 20.9958 33.3119 20.982C32.7518 20.9813 32.1913 20.9897 31.6312 20.9782C31.3935 20.9874 31.2555 20.7683 31.2257 20.5583C31.0647 19.8431 30.6746 19.135 30.0016 18.79C28.9684 18.2728 27.7706 18.2989 26.644 18.3097C25.8216 18.3532 24.9372 18.4245 24.2403 18.908C23.7054 19.2744 23.543 20.014 23.7338 20.6097C23.9138 21.0373 24.4074 21.1753 24.8116 21.3025C27.1383 21.9111 29.604 21.8504 31.8864 22.6513C32.8314 22.9778 33.7557 23.6126 34.0791 24.602C34.5023 25.9281 34.3168 27.5129 33.3733 28.5774C32.6082 29.4533 31.494 29.9302 30.3826 30.1892C28.9041 30.5189 27.3698 30.5273 25.8683 30.3809C24.4565 30.2199 22.9872 29.849 21.8974 28.8872C20.9653 28.0778 20.5102 26.8168 20.5553 25.5999C20.5661 25.3944 20.7707 25.251 20.9677 25.2679C21.5317 25.2634 22.0959 25.2618 22.66 25.2688C22.8855 25.2526 23.0524 25.4474 23.0641 25.6598C23.168 26.341 23.424 27.0561 24.0182 27.4599C25.1646 28.1997 26.6034 28.149 27.9162 28.1697C29.0038 28.1215 30.2248 28.1069 31.1123 27.388C31.5806 26.978 31.7193 26.2919 31.5928 25.7018C31.4557 25.2036 30.9344 24.9714 30.4868 24.8196C28.1899 24.0931 25.6965 24.3567 23.4219 23.535C22.4983 23.2087 21.6052 22.5916 21.2505 21.6429C20.7555 20.3001 20.9822 18.639 22.0246 17.6107C23.0409 16.5874 24.5079 16.1933 25.9028 16.0524Z" fill="#9EFF42"/>
</g>
<defs>
<clipPath id="clip0_87_1785">
<rect width="46" height="46" fill="white" transform="translate(0.5)"/>
</clipPath>
</defs>
</svg>
