<svg width="16" height="16" viewBox="0 0 16 16" fill="none" xmlns="http://www.w3.org/2000/svg">
<g clip-path="url(#clip0_840_4)">
<path d="M12.25 0H3.75C1.67893 0 0 1.67893 0 3.75V12.25C0 14.3211 1.67893 16 3.75 16H12.25C14.3211 16 16 14.3211 16 12.25V3.75C16 1.67893 14.3211 0 12.25 0Z" fill="#242938"/>
<mask id="mask0_840_4" style="mask-type:luminance" maskUnits="userSpaceOnUse" x="2" y="1" width="13" height="14">
<path d="M2 1.75H14.0575V14.25H2V1.75Z" fill="white"/>
</mask>
<g mask="url(#mask0_840_4)">
<path d="M9.04733 13.9495C8.73102 14.3478 8.08964 14.1296 8.08202 13.621L7.97058 6.18164H12.9728C13.8788 6.18164 14.3841 7.22814 13.8207 7.9377L9.04733 13.9495Z" fill="url(#paint0_linear_840_4)"/>
<path d="M9.04733 13.9495C8.73102 14.3478 8.08964 14.1296 8.08202 13.621L7.97058 6.18164H12.9728C13.8788 6.18164 14.3841 7.22814 13.8207 7.9377L9.04733 13.9495Z" fill="url(#paint1_linear_840_4)" fill-opacity="0.2"/>
<path d="M7.0129 1.97908C7.32921 1.58064 7.97058 1.79896 7.97821 2.30758L8.02709 9.74689H3.08746C2.1814 9.74689 1.67608 8.70039 2.23952 7.99083L7.0129 1.97908Z" fill="#3ECF8E"/>
</g>
</g>
<defs>
<linearGradient id="paint0_linear_840_4" x1="7.97058" y1="7.83114" x2="12.4163" y2="9.6957" gradientUnits="userSpaceOnUse">
<stop stop-color="#249361"/>
<stop offset="1" stop-color="#3ECF8E"/>
</linearGradient>
<linearGradient id="paint1_linear_840_4" x1="5.99958" y1="5.13245" x2="8.02708" y2="8.94914" gradientUnits="userSpaceOnUse">
<stop/>
<stop offset="1" stop-opacity="0"/>
</linearGradient>
<clipPath id="clip0_840_4">
<rect width="16" height="16" fill="white"/>
</clipPath>
</defs>
</svg>
