<svg width="45" height="45" viewBox="0 0 45 45" fill="none" xmlns="http://www.w3.org/2000/svg">
<path fill-rule="evenodd" clip-rule="evenodd" d="M9.375 1.875C7.38588 1.875 5.47822 2.66518 4.0717 4.0717C2.66518 5.47822 1.875 7.38588 1.875 9.375V35.625C1.875 37.6141 2.66518 39.5218 4.0717 40.9283C5.47822 42.3348 7.38588 43.125 9.375 43.125H35.625C37.6141 43.125 39.5218 42.3348 40.9283 40.9283C42.3348 39.5218 43.125 37.6141 43.125 35.625V9.375C43.125 7.38588 42.3348 5.47822 40.9283 4.0717C39.5218 2.66518 37.6141 1.875 35.625 1.875H9.375ZM28.125 12.1875H31.875V30.5438C30.8156 30.9113 28.2113 31.65 26.2725 31.65C23.85 31.65 19.5563 30.4031 19.5563 24.5888C19.5563 19.5506 23.7506 17.6512 28.125 17.6512V12.1875ZM28.125 20.8575V28.3575C26.5688 28.3575 23.4375 27.9581 23.4375 24.6075C23.4375 21.2569 26.5688 20.8575 28.125 20.8575ZM16.875 14.0625H13.125V30.9375H16.875V14.0625Z" fill="#898989"/>
</svg>
