<svg width="32" height="17" viewBox="0 0 32 17" fill="none" xmlns="http://www.w3.org/2000/svg">
<path d="M16 0.5C11.8828 0.5 9.33984 2.26623 8.25 5.7987C9.82422 4.03247 11.6406 3.40909 13.6992 3.82468C14.9102 4.03247 15.6367 4.75974 16.6055 5.59091C18.1797 6.94156 19.875 8.5 23.75 8.5C27.8672 8.5 30.4102 6.73377 31.5 3.2013C29.9258 4.96753 28.1094 5.59091 26.0508 5.17532C24.8398 4.86364 24.1133 4.13636 23.1445 3.30519C21.5703 2.05844 19.875 0.5 16 0.5ZM8.25 8.5C4.13281 8.5 1.58984 10.2662 0.5 13.7987C2.07422 12.0325 3.89062 11.4091 5.94922 11.8247C7.16016 12.0325 7.88672 12.7597 8.85547 13.5909C10.4297 14.9416 12.125 16.5 16 16.5C20.1172 16.5 22.6602 14.7338 23.75 11.0974C22.1758 12.8636 20.3594 13.5909 18.3008 13.1753C17.0898 12.8636 16.3633 12.1364 15.3945 11.3052C13.8203 10.0584 12.125 8.5 8.25 8.5Z" fill="url(#paint0_linear_682_288)"/>
<defs>
<linearGradient id="paint0_linear_682_288" x1="-86.3" y1="512.5" x2="2374.74" y2="2163.77" gradientUnits="userSpaceOnUse">
<stop stop-color="#2298BD"/>
<stop offset="1" stop-color="#0ED7B5"/>
</linearGradient>
</defs>
</svg>
