<svg width="75" height="46" viewBox="0 0 75 46" fill="none" xmlns="http://www.w3.org/2000/svg">
<path d="M37.5 0C27.5391 0 21.3867 5.07792 18.75 15.2338C22.5586 10.1558 26.9531 8.36364 31.9336 9.55844C34.8633 10.1558 36.6211 12.2468 38.9648 14.6364C42.7734 18.5195 46.875 23 56.25 23C66.2109 23 72.3633 17.9221 75 7.76623C71.1914 12.8442 66.7969 14.6364 61.8164 13.4416C58.8867 12.5455 57.1289 10.4545 54.7852 8.06493C50.9766 4.48052 46.875 0 37.5 0ZM18.75 23C8.78906 23 2.63672 28.0779 0 38.2338C3.80859 33.1558 8.20312 31.3636 13.1836 32.5584C16.1133 33.1558 17.8711 35.2468 20.2148 37.6364C24.0234 41.5195 28.125 46 37.5 46C47.4609 46 53.6133 40.9221 56.25 30.4675C52.4414 35.5455 48.0469 37.6364 43.0664 36.4416C40.1367 35.5455 38.3789 33.4545 36.0352 31.0649C32.2266 27.4805 28.125 23 18.75 23Z" fill="url(#paint0_linear_87_1783)"/>
<defs>
<linearGradient id="paint0_linear_87_1783" x1="-210" y1="1472" x2="6337.33" y2="5168.79" gradientUnits="userSpaceOnUse">
<stop stop-color="#2298BD"/>
<stop offset="1" stop-color="#0ED7B5"/>
</linearGradient>
</defs>
</svg>
