<svg width="45" height="45" viewBox="0 0 45 45" fill="none" xmlns="http://www.w3.org/2000/svg">
<g clip-path="url(#clip0_84_453)">
<path d="M22.5 7.5C19.422 7.5 16.776 8.331 14.7 10.11C12.636 11.88 11.289 14.451 10.539 17.658C10.4594 17.9977 10.5007 18.3544 10.6557 18.667C10.8108 18.9795 11.0699 19.2282 11.3885 19.3702C11.7072 19.5123 12.0653 19.5389 12.4014 19.4454C12.7375 19.3519 13.0305 19.1442 13.23 18.858C14.178 17.502 15.126 16.689 16.038 16.269C16.92 15.864 17.871 15.783 18.963 16.074C20.061 16.368 20.913 17.232 22.248 18.684L22.293 18.732C23.301 19.827 24.528 21.162 26.208 22.2C27.954 23.277 30.123 24 33 24C36.078 24 38.724 23.169 40.8 21.39C42.864 19.62 44.214 17.049 44.961 13.842C45.0406 13.5023 44.9994 13.1456 44.8443 12.833C44.6893 12.5205 44.4301 12.2718 44.1115 12.1298C43.7929 11.9877 43.4347 11.9611 43.0986 12.0546C42.7625 12.1481 42.4695 12.3558 42.27 12.642C41.322 13.998 40.374 14.811 39.462 15.231C38.58 15.636 37.629 15.717 36.537 15.426C35.439 15.132 34.587 14.268 33.252 12.816L33.207 12.768C32.199 11.673 30.972 10.338 29.292 9.3C27.546 8.223 25.377 7.5 22.5 7.5ZM12 21C8.92203 21 6.27603 21.831 4.20003 23.61C2.13603 25.38 0.789026 27.951 0.0390255 31.158C-0.0405791 31.4977 0.000695542 31.8544 0.155747 32.167C0.310798 32.4795 0.569928 32.7282 0.888545 32.8702C1.20716 33.0123 1.56534 33.0389 1.90144 32.9454C2.23754 32.8519 2.53054 32.6442 2.73003 32.358C3.67803 31.002 4.62603 30.189 5.53803 29.769C6.42003 29.364 7.37103 29.283 8.46303 29.574C9.56103 29.868 10.413 30.732 11.748 32.184L11.793 32.232C12.801 33.327 14.028 34.662 15.708 35.7C17.454 36.777 19.623 37.5 22.5 37.5C25.578 37.5 28.224 36.669 30.3 34.89C32.364 33.12 33.714 30.549 34.461 27.342C34.5406 27.0023 34.4994 26.6456 34.3443 26.333C34.1893 26.0205 33.9301 25.7718 33.6115 25.6298C33.2929 25.4877 32.9347 25.4611 32.5986 25.5546C32.2625 25.6481 31.9695 25.8558 31.77 26.142C30.822 27.498 29.874 28.311 28.962 28.731C28.08 29.136 27.129 29.217 26.037 28.926C24.939 28.632 24.087 27.768 22.752 26.316L22.707 26.268C21.702 25.173 20.472 23.838 18.792 22.8C17.046 21.72 14.877 21 12 21Z" fill="#898989"/>
</g>
<defs>
<clipPath id="clip0_84_453">
<rect width="45" height="45" fill="white"/>
</clipPath>
</defs>
</svg>
