<svg width="45" height="45" viewBox="0 0 45 45" fill="none" xmlns="http://www.w3.org/2000/svg">
<path fill-rule="evenodd" clip-rule="evenodd" d="M42 12.639L22.5 1.26001L3 12.639V32.361L6.018 34.122L12.189 31.626C13.0194 31.2897 13.7306 30.7132 14.2314 29.9703C14.7322 29.2274 14.9998 28.3519 15 27.456V12H18V27.456C17.9998 28.9495 17.5537 30.409 16.7188 31.6473C15.884 32.8857 14.6984 33.8466 13.314 34.407L9.294 36.033L22.5 43.74L42 32.364V12.639ZM21 18C21 16.4087 21.6321 14.8826 22.7574 13.7574C23.8826 12.6322 25.4087 12 27 12H30.501C33.537 12 36 14.46 36 17.499V18H33V17.499C33 17.1708 32.9354 16.8459 32.8098 16.5427C32.6842 16.2395 32.5001 15.964 32.2681 15.7319C32.036 15.4999 31.7605 15.3158 31.4573 15.1902C31.1541 15.0646 30.8292 15 30.501 15H27C26.2044 15 25.4413 15.3161 24.8787 15.8787C24.3161 16.4413 24 17.2044 24 18C24 18.7957 24.3161 19.5587 24.8787 20.1213C25.4413 20.6839 26.2044 21 27 21H30C31.5913 21 33.1174 21.6322 34.2426 22.7574C35.3679 23.8826 36 25.4087 36 27C36 28.5913 35.3679 30.1174 34.2426 31.2426C33.1174 32.3679 31.5913 33 30 33H27C25.4087 33 23.8826 32.3679 22.7574 31.2426C21.6321 30.1174 21 28.5913 21 27H24C24 27.7957 24.3161 28.5587 24.8787 29.1213C25.4413 29.6839 26.2044 30 27 30H30C30.7956 30 31.5587 29.6839 32.1213 29.1213C32.6839 28.5587 33 27.7957 33 27C33 26.2044 32.6839 25.4413 32.1213 24.8787C31.5587 24.3161 30.7956 24 30 24H27C25.4087 24 23.8826 23.3679 22.7574 22.2427C21.6321 21.1174 21 19.5913 21 18Z" fill="#818181"/>
</svg>
