<svg width="15" height="16" viewBox="0 0 15 16" fill="none" xmlns="http://www.w3.org/2000/svg">
<path d="M7.5 11.75L8.67 9.185L11.25 8L8.67 6.83L7.5 4.25L6.3225 6.83L3.75 8L6.3225 9.185L7.5 11.75ZM4.6275 1.07C5.53881 0.694961 6.51454 0.501344 7.5 0.5C8.4825 0.5 9.4575 0.695 10.3725 1.07C11.28 1.445 12.105 2 12.8025 2.6975C13.5 3.395 14.055 4.22 14.43 5.1275C14.805 6.0425 15 7.0175 15 8C15 9.9875 14.2125 11.9 12.8025 13.3025C12.107 14 11.2805 14.5532 10.3705 14.9303C9.46053 15.3074 8.48502 15.501 7.5 15.5C6.51454 15.4987 5.53881 15.305 4.6275 14.93C3.71855 14.5522 2.89285 13.9992 2.1975 13.3025C1.50002 12.607 0.946828 11.7805 0.569712 10.8705C0.192596 9.96053 -0.00101356 8.98501 3.99012e-06 8C3.99012e-06 6.0125 0.787504 4.1 2.1975 2.6975C2.895 2 3.72 1.445 4.6275 1.07ZM3.255 12.245C4.38 13.37 5.91 14 7.5 14C9.09 14 10.62 13.37 11.745 12.245C12.87 11.12 13.5 9.59 13.5 8C13.5 6.41 12.87 4.88 11.745 3.755C11.1874 3.19799 10.5255 2.75631 9.7971 2.45518C9.06873 2.15405 8.28817 1.99938 7.5 2C5.91 2 4.38 2.63 3.255 3.755C2.698 4.31262 2.25631 4.97453 1.95518 5.7029C1.65406 6.43127 1.49938 7.21183 1.5 8C1.5 9.59 2.13 11.12 3.255 12.245Z" fill="#FF32D3"/>
</svg>
