<svg width="48" height="46" viewBox="0 0 48 46" fill="none" xmlns="http://www.w3.org/2000/svg">
<path d="M39.347 0H7.83253C3.50674 0 0 3.50674 0 7.83253V38.1675C0 42.4933 3.50674 46 7.83253 46H39.347C43.6727 46 47.1795 42.4933 47.1795 38.1675V7.83253C47.1795 3.50674 43.6727 0 39.347 0Z" fill="#470137"/>
<path d="M24.8021 12.0973L18.9152 21.8137L25.2135 32.1315C25.2539 32.2037 25.2652 32.2886 25.2452 32.3689C25.2353 32.4031 25.2144 32.4116 25.1822 32.4128L25.1463 32.4124L25.1028 32.4112C25.0793 32.4111 25.0529 32.4123 25.0236 32.4171L20.4827 32.417L20.3934 32.4157C20.1486 32.4093 19.9723 32.3743 19.8647 32.1948C19.4424 31.3719 19.0204 30.5543 18.5988 29.742C18.2292 29.0314 17.8397 28.3085 17.4304 27.5733L17.2537 27.2575C16.7789 26.4138 16.3095 25.5593 15.8453 24.6938H15.8136C15.3913 25.538 14.9534 26.382 14.5001 27.2258C14.0462 28.07 13.5978 28.9087 13.1551 29.742C12.712 30.5757 12.2583 31.4039 11.7941 32.2265C11.7195 32.394 11.5956 32.429 11.4227 32.4349L11.351 32.4359H7.01506L6.99631 32.4365L6.93428 32.4421C6.89985 32.4441 6.87929 32.4367 6.87262 32.3847C6.86071 32.3075 6.87762 32.2286 6.92013 32.1631L13.0284 22.1302L7.07832 12.0656C7.01506 11.9816 7.0045 11.913 7.04664 11.8599C7.09402 11.8052 7.16436 11.7759 7.2366 11.7808H11.6991C11.7964 11.7755 11.8937 11.7917 11.984 11.8283C12.0597 11.8712 12.1246 11.9307 12.1739 12.0024C12.5537 12.8465 12.9757 13.6905 13.4398 14.5343C13.9038 15.3785 14.3732 16.2119 14.8483 17.0347C15.323 17.8575 15.7608 18.691 16.1617 19.535H16.1934C16.6152 18.67 17.0425 17.8261 17.4752 17.003C17.9075 16.1801 18.3505 15.352 18.8045 14.5185C19.258 13.6852 19.6958 12.8571 20.1179 12.034C20.1422 11.9559 20.1857 11.8852 20.2445 11.8283C20.3227 11.7886 20.4105 11.7722 20.4978 11.7808H24.6438C24.7262 11.7605 24.8116 11.7999 24.8495 11.8758C24.884 11.9447 24.8709 12.027 24.8189 12.0818L24.8021 12.0973ZM34.1035 32.8254L33.8852 32.8278C32.4284 32.85 30.985 32.5472 29.6599 31.9416C28.4255 31.3703 27.3936 30.4377 26.7007 29.2672C26.002 28.1068 25.6435 26.661 25.6253 24.9298L25.6246 24.7888C25.6127 23.3362 25.9839 21.9061 26.7007 20.6427C27.4186 19.3915 28.4649 18.3615 29.7255 17.6634L29.834 17.6043C31.2053 16.8447 32.8616 16.465 34.803 16.465L34.8879 16.466L34.9848 16.4689L35.0936 16.4739L35.2144 16.4808L35.4175 16.4951L35.6475 16.5136L35.8157 16.5283V10.2933C35.8157 10.1459 35.8791 10.0718 36.0057 10.0718H39.9935C40.0458 10.0643 40.0985 10.0819 40.1359 10.1192C40.1733 10.1566 40.1909 10.2093 40.1834 10.2616V28.9665C40.1834 29.2807 40.1955 29.6188 40.2197 29.9809L40.2788 30.802L40.31 31.2769C40.318 31.4115 40.2426 31.5372 40.1201 31.5935C39.0913 32.0225 38.0197 32.3408 36.9235 32.5429C35.9928 32.7147 35.0496 32.8092 34.1035 32.8254ZM35.8157 28.9032V20.2629C35.6447 20.2166 35.47 20.1848 35.2936 20.168C35.078 20.1463 34.8614 20.1357 34.6447 20.1363C33.8767 20.1287 33.1177 20.3022 32.4292 20.6427C31.7587 20.976 31.1862 21.4777 30.7677 22.0986C30.3499 22.7097 30.1339 23.5078 30.1196 24.4927L30.1188 24.5989C30.1034 25.2888 30.2161 25.9756 30.4511 26.6245C30.6424 27.1473 30.9448 27.6224 31.3374 28.0171C31.7132 28.3802 32.1682 28.651 32.6666 28.8083C33.193 28.9788 33.7432 29.0642 34.2966 29.0616C34.5918 29.0616 34.8661 29.0509 35.1194 29.0299C35.3216 29.0146 35.522 28.9813 35.7181 28.9302L35.8157 28.9032Z" fill="#FF61F6"/>
</svg>
